<?xml version="1.0" encoding="UTF-8"?>
<svg width="200px" height="169px" viewBox="0 0 200 169" version="1.1" xmlns="http://www.w3.org/2000/svg" xmlns:xlink="http://www.w3.org/1999/xlink">
    <title>LoggedIn</title>
    <g id="Android-App---AV-Revisions" stroke="none" stroke-width="1" fill="none" fill-rule="evenodd">
        <g id="3-LoggedIn" transform="translate(-80.000000, -349.000000)" fill-rule="nonzero">
            <g id="LoggedIn" transform="translate(80.000000, 349.000000)">
                <path d="M106.968475,23.7376178 C113.603344,18.8410325 122.944503,16.9639049 130.253529,20.7839318 C122.025255,24.3531221 115.325868,30.7149411 111.340682,38.743799 C109.814995,41.8457595 108.441361,45.454594 105.293472,46.8882314 C103.334796,47.7803157 101.023083,47.6080511 98.9948777,46.8877532 C96.9665926,46.1673786 95.1624056,44.9436829 93.383321,43.7329141 L92.8497996,43.6687486 C96.015887,36.0589751 100.333606,28.6342031 106.968475,23.7376178 Z" id="Path" fill="#F0F0F0"></path>
                <path d="M130.194702,20.9465586 C123.37032,21.1601594 116.7868,23.5165553 111.379251,27.6810494 C110.199201,28.556923 109.164718,29.6131502 108.313886,30.810847 C107.522804,32.0043148 107.066055,33.3876466 106.991095,34.8171107 C106.894402,36.1485468 106.949825,37.5216452 106.53084,38.8064102 C106.077302,40.1301259 105.079836,41.1975405 103.789098,41.7404193 C102.216423,42.45054 100.482136,42.553762 98.7826358,42.5958258 C96.8956643,42.6425275 94.9349507,42.6611684 93.2188565,43.5488262 C93.0109287,43.6563796 92.8560407,43.3277662 93.0636555,43.2203752 C96.049366,41.6760147 99.5383713,42.6836195 102.676435,41.7644859 C104.140715,41.3355964 105.484487,40.4632534 106.072423,39.0037224 C106.586546,37.7274271 106.530604,36.3114251 106.616846,34.9624731 C106.66951,33.566918 107.063416,32.205473 107.764154,30.9970654 C108.5512,29.759954 109.543231,28.6656686 110.697767,27.7610692 C113.264486,25.6831053 116.142281,24.0212473 119.225729,22.836374 C122.737338,21.4645883 126.457957,20.7030425 130.226613,20.5845785 C130.459874,20.5774571 130.426425,20.9393549 130.194702,20.9465525 L130.194702,20.9465586 Z" id="Path" fill="#FFFFFF"></path>
                <path d="M113.041453,26.2377069 C111.851363,24.1697608 112.336079,21.5449572 114.186447,20.0374091 C114.368233,19.8903393 114.605531,20.165645 114.423506,20.3129079 C112.697214,21.7140742 112.250179,24.1628709 113.370222,26.0826485 C113.487786,26.2847059 113.158348,26.4386025 113.041453,26.2377007 L113.041453,26.2377069 Z" id="Path" fill="#FFFFFF"></path>
                <path d="M106.951126,34.1355781 C109.227093,34.7711186 111.659215,34.526294 113.762525,33.4499225 C113.970827,33.3431109 114.125776,33.6716906 113.917726,33.7783765 C111.726879,34.8943912 109.195365,35.1440273 106.828398,34.4774648 C106.602836,34.4137775 106.726789,34.0722342 106.951133,34.1355781 L106.951126,34.1355781 Z" id="Path" fill="#FFFFFF"></path>
                <path d="M122.720064,21.9458806 C123.008812,22.8271166 123.721755,23.5042349 124.617306,23.7477888 C124.843564,23.8085884 124.719363,24.1500828 124.494571,24.0896786 C123.506818,23.8161077 122.719016,23.0712056 122.391292,22.1009328 C122.351876,22.0100947 122.389857,21.90429 122.478075,21.8591813 C122.568886,21.816909 122.676835,21.8555853 122.720058,21.9458806 L122.720064,21.9458806 Z" id="Path" fill="#FFFFFF"></path>
                <path d="M136.04858,48.0789431 C135.906208,48.0449936 135.76386,48.011044 135.619172,47.9790992 C133.702866,47.5325575 131.753415,47.242287 129.790055,47.1111521 C129.63842,47.0986053 129.48456,47.0881614 129.332869,47.0800012 C124.599325,46.8144417 119.85757,47.4291687 115.348649,48.8929327 C113.554978,49.4770435 111.808389,50.1966398 110.124001,51.0454917 C107.797873,52.2179212 105.369105,53.6740343 102.864842,54.0006674 C102.603955,54.0376738 102.341023,54.0585003 102.077558,54.0630274 L92.8128227,44.3239738 C92.8028874,44.2912841 92.7906323,44.2605869 92.7806049,44.22779 L92.3928953,43.8558376 C92.4767047,43.8059968 92.5647024,43.756104 92.6485117,43.7062633 C92.6970103,43.6771418 92.7475708,43.6502059 92.7960664,43.6210905 C92.8290513,43.6023699 92.8621528,43.5837444 92.8908451,43.5649656 C92.9018023,43.5586938 92.9128607,43.5525292 92.9216024,43.5483572 C92.9502978,43.5295814 92.9789471,43.5151801 93.0054149,43.4985164 C93.4965212,43.2182734 93.9904565,42.9409894 94.4872209,42.6666647 C94.4894455,42.6645526 94.4894455,42.6645526 94.493735,42.6646078 C98.2841521,40.5840525 102.28173,38.8013523 106.423061,37.6815009 C106.54767,37.6478517 106.674403,37.6119771 106.803231,37.5827758 C108.672754,37.0883476 110.579599,36.7473981 112.504722,36.5633324 C113.559183,36.4659314 114.617904,36.421922 115.67682,36.4314732 C118.412851,36.4614085 121.127143,36.9211021 123.720186,37.7937015 C128.889131,39.5339794 133.443433,42.9064206 135.867019,47.7101144 C135.928932,47.833044 135.988894,47.9539014 136.04858,48.0789431 Z" id="Path" fill="#F0F0F0"></path>
                <path d="M135.904026,48.1745261 C130.326414,44.2402645 123.649767,42.1617821 116.822422,42.234302 C115.352374,42.2238456 113.889863,42.444952 112.488733,42.8894811 C111.137857,43.3665688 109.939508,44.1963523 109.018196,45.2926139 C108.138606,46.2975273 107.355365,47.4272065 106.246577,48.2010114 C105.086719,48.9851241 103.647024,49.2374279 102.289278,48.8945206 C100.605635,48.5155576 99.1586947,47.554817 97.7763897,46.5661657 C96.241593,45.4684558 94.6648517,44.3039872 92.7597001,43.9805175 C92.5288669,43.9413261 92.6032349,43.5857829 92.8337214,43.6249284 C96.1483576,44.1877095 98.3268914,47.0908528 101.386378,48.2444883 C102.81399,48.7827951 104.412633,48.8945482 105.761647,48.0828301 C106.941302,47.373022 107.749985,46.2087741 108.631796,45.183586 C109.514873,44.1009899 110.649857,43.2508835 111.937602,42.7075268 C113.311555,42.1931639 114.763104,41.9161375 116.23009,41.8883107 C119.53175,41.7730317 122.831021,42.1771003 126.007042,43.0857142 C129.637567,44.1026239 133.067217,45.7324945 136.147606,47.9048087 C136.338206,48.0393409 136.093394,48.3081878 135.904039,48.1745384 L135.904026,48.1745261 Z" id="Path" fill="#FFFFFF"></path>
                <path d="M119.019421,42.0816745 C119.315441,39.714705 121.284291,37.9104982 123.670227,37.8197883 C123.904003,37.8117017 123.927561,38.1742494 123.693476,38.1823451 C121.470714,38.2627436 119.638017,39.9490874 119.375364,42.1556248 C119.347464,42.3876774 118.99168,42.3123936 119.019434,42.0816745 L119.019421,42.0816745 Z" id="Path" fill="#FFFFFF"></path>
                <path d="M109.39701,44.7243978 C110.831236,46.6008165 112.920691,47.8682401 115.248737,48.2739439 C115.479426,48.3139508 115.405126,48.6695062 115.174716,48.6295331 C112.752884,48.2028336 110.581167,46.8794696 109.092978,44.9235461 C108.951262,44.7370212 109.256062,44.5388753 109.39701,44.7243855 L109.39701,44.7243978 Z" id="Path" fill="#FFFFFF"></path>
                <path d="M129.333706,44.476497 C129.033183,45.3537932 129.194364,46.3232616 129.762633,47.0563913 C129.906647,47.241031 129.601679,47.4389869 129.458601,47.2555489 C128.834808,46.4429968 128.654706,45.3743856 128.977764,44.402559 C129.001036,44.3063212 129.095124,44.2446868 129.192746,44.2617303 C129.290731,44.2826011 129.353613,44.3784139 129.333706,44.4765092 L129.333706,44.476497 Z" id="Path" fill="#FFFFFF"></path>
                <path d="M105.217856,31.0222693 L104.499892,31.0222693 L104.499892,11.3726639 C104.499895,8.3564481 103.30056,5.46376743 101.165728,3.33097905 C99.0308963,1.19819067 96.1354411,0 93.1163302,0 L51.4460071,0 C48.4268964,0 45.5314381,1.19817423 43.3965998,3.33095611 C41.2617616,5.46373798 40.0624118,8.35641463 40.0624118,11.3726302 L40.0624118,119.171917 C40.0624118,125.45286 45.159001,130.544584 51.4459733,130.544584 L93.1162749,130.544584 C99.4032479,130.544584 104.499861,125.452904 104.499879,119.17196 L104.499879,45.0091941 L105.217856,45.0091941 L105.217856,31.0222693 Z" id="Path" fill="#3F3D56"></path>
                <path d="M93.5756185,2.95876541 L88.1362646,2.95876541 C88.6442249,4.20294907 88.4989219,5.6181108 87.7487061,6.73335157 C86.9984903,7.84859234 85.7418066,8.51756807 84.3968254,8.51767229 L60.524437,8.51767229 C59.1794518,8.51757547 57.9227618,7.84860016 57.1725448,6.73335537 C56.4223277,5.61811057 56.2770299,4.20294298 56.7850009,2.95876541 L51.7046304,2.95876541 C47.0095912,2.95876541 43.2034982,6.7611903 43.2034982,11.4517273 L43.2034982,119.092838 C43.2034982,121.345315 44.0991468,123.505537 45.693416,125.09828 C47.2876853,126.691022 49.4499793,127.585818 51.7046182,127.585818 L93.5756185,127.585818 C95.8302571,127.585818 97.9925521,126.691029 99.5868232,125.098288 C101.181094,123.505547 102.076748,121.345327 102.076748,119.09285 L102.076748,119.09285 L102.076748,11.4517212 C102.076748,6.76118805 98.2706539,2.95876541 93.5756185,2.95876541 Z" id="Path" fill="#FFFFFF"></path>
                <path d="M73.44467,93.0074041 C67.2174653,93.0131939 61.243642,90.5443867 56.8403414,86.1453085 C52.4370407,81.7462303 49.9658639,75.7781355 49.9716574,69.5569022 C49.962737,60.7367419 54.9154103,52.65978 62.7846446,48.6611345 C68.4359893,45.7887011 75.0087903,45.3174181 81.0128072,47.354139 C91.8824222,51.0546943 98.4771171,62.0677667 96.6008472,73.386005 C94.7245772,84.7042432 84.9281023,93.0052942 73.4446823,93.0074041 L73.44467,93.0074041 Z M73.44467,47.0259409 C69.8836869,47.0155625 66.3719546,47.857067 63.2031728,49.4801729 C55.6522089,53.3235263 50.8951716,61.07137 50.8881905,69.5377196 C50.8812249,78.0040692 55.6254927,85.7597237 63.1701152,89.6154868 C70.7147376,93.47125 79.7861103,92.776232 86.6540014,87.8162306 C87.8719989,86.9382277 88.9983138,85.9398128 90.015869,84.8361237 C96.0973117,78.2624795 97.7050354,68.7149278 94.1112997,60.5151918 C90.517564,52.3154559 82.4045642,47.0200832 73.44467,47.0259409 L73.44467,47.0259409 Z" id="Shape" fill="#F0F0F0"></path>
                <path d="M22.5821389,48.7453417 C23.8864275,48.9087249 25.0512886,49.64088 25.7632826,50.7447995 C26.4752766,51.848719 26.6612659,53.2110059 26.2712047,54.4650975 L34.0701199,60.9551238 L31.2782903,66.6518767 L20.3935684,57.3321639 C18.2818247,56.5200352 17.1118339,54.2583096 17.6701995,52.067581 C18.228565,49.8768525 20.3387962,48.4495761 22.5821511,48.7453325 L22.5821389,48.7453417 Z" id="Path" fill="#FFB6B6"></path>
                <path d="M95.4203417,75.810336 C95.2639287,74.1306033 94.6172951,71.1109616 94.0686436,69.9944301 C92.3819413,65.5839382 81.4836971,61.9590501 80.0202307,61.4917538 L79.6489584,57.3687589 L64.5065411,55.7410189 L62.5856672,61.0135477 L57.1547482,63.0489891 C56.4081602,63.3271488 55.8251465,63.9242014 55.5652824,64.6767291 L55.5652824,64.6767291 L50.6927539,66.0837586 L45.8846457,67.4723956 L29.1804791,55.7134301 L28.3918139,56.2284212 L23.1204561,59.6647613 L22.3072194,60.1950796 L43.9239199,79.678913 L51.9538094,77.7967428 L57.992406,76.3774516 L58.5077964,78.4680706 L57.1731768,85.812826 C65.1608002,93.7957358 77.7685838,94.8025079 86.9240544,88.1885294 L90.3543926,85.147629 C92.7452446,82.5649117 94.5099795,79.4677991 95.5123344,76.0954326 L95.4203417,75.810336 Z" id="Path" fill="#E4E4E4"></path>
                <ellipse id="Oval" fill="#FFB6B6" transform="translate(73.408606, 42.028907) rotate(-18.319171) translate(-73.408606, -42.028907) " cx="73.4086056" cy="42.0289068" rx="10.9016169" ry="10.8932277"></ellipse>
                <path d="M64.7968238,29.611595 C65.8567547,28.0993744 67.4473683,27.0408891 69.2525823,26.6464781 C71.0374583,26.279718 72.8951468,26.6201352 74.43354,27.5958766 C76.1064132,26.9226452 77.9100877,26.4759853 79.6821735,26.7030535 C81.4542592,26.9301217 83.191071,27.919006 84.0110458,29.5481622 C84.1835211,29.970192 84.3927986,30.3762571 84.6364617,30.7616685 C85.3589208,31.7245579 86.7013831,31.8494586 87.8870304,31.8957097 C87.2876333,32.2449964 86.6881104,32.5942595 86.0884616,32.9434991 C86.6859482,33.2216353 87.2834982,33.4998 87.8811115,33.7779933 C87.0678309,34.0881284 86.2546116,34.3982757 85.4414537,34.7084353 C87.3341661,36.3706031 87.7920154,39.3287247 87.0752297,41.8088028 C86.3967772,44.1568775 84.8411524,46.1335026 83.104046,47.8257514 C82.7651204,46.5630482 83.1379576,45.1940851 83.3862007,43.8867983 C83.648368,42.5054969 83.690374,40.8903466 82.7222983,39.915128 C82.0692457,39.2572881 81.1112742,39.0585444 80.2080208,38.8989401 C75.6518109,38.0939201 71.053458,37.5484442 66.4352393,37.265155 C65.8171347,37.1798387 65.1875604,37.2440638 64.5994727,37.4524279 C63.4755977,37.9513563 63.0240477,39.3215792 62.6983713,40.5365293 C62.5423624,38.4039559 62.6669934,36.2601511 63.069076,34.1599605 C63.3771676,32.5525565 63.8625002,30.9437148 64.7968238,29.611595 Z" id="Path" fill="#2F2E41"></path>
                <path d="M78.967729,104.055941 L66.0805914,104.055941 C65.1485549,104.055941 64.39299,103.301101 64.39299,102.369958 C64.39299,101.438816 65.1485549,100.683975 66.0805914,100.683975 L78.967729,100.683975 C79.8997655,100.683975 80.6553303,101.438816 80.6553303,102.369958 C80.6553303,103.301101 79.8997655,104.055941 78.967729,104.055941 Z" id="Path" fill="#FF8843"></path>
                <path d="M36.6800107,13.832786 L1.2328158,13.832786 C0.552669201,13.8317141 0.00186980794,13.2805741 0.00186980794,12.6010788 C0.00186980794,11.9215836 0.552669201,11.3704436 1.2328158,11.3693716 L36.6800107,11.3693716 C37.3609168,11.3693716 37.9129002,11.9208257 37.9129002,12.6010788 C37.9129002,13.2813319 37.3609168,13.832786 36.6800107,13.832786 L36.6800107,13.832786 Z" id="Path" fill="#FF8843"></path>
                <path d="M57.1460709,21.6996198 L1.2328158,21.6996198 C0.551950434,21.6996198 0,21.1481987 0,20.4679862 C0,19.7877737 0.551950434,19.2363526 1.2328158,19.2363526 L57.1460709,19.2363526 C57.8269362,19.2363526 58.3788867,19.7877737 58.3788867,20.4679862 C58.3788867,21.1481987 57.8269362,21.6996198 57.1460709,21.6996198 Z" id="Path" fill="#FF8843"></path>
                <path d="M46.4013217,29.1109684 L1.232825,29.1109684 C0.551960486,29.1109684 1.07392816e-05,28.5595479 1.07392816e-05,27.8793363 C1.07392816e-05,27.1991247 0.551960486,26.6477042 1.232825,26.6477042 L46.4013217,26.6477042 C47.0821862,26.6477042 47.634136,27.1991247 47.634136,27.8793363 C47.634136,28.5595479 47.0821862,29.1109684 46.4013217,29.1109684 L46.4013217,29.1109684 Z" id="Path" fill="#CACACA"></path>
                <path d="M26.7030251,36.4950777 L1.232825,36.4950777 C0.551960486,36.4950777 1.07392816e-05,35.9436572 1.07392816e-05,35.2634456 C1.07392816e-05,34.5832339 0.551960486,34.0318135 1.232825,34.0318135 L26.7030251,34.0318135 C27.3838896,34.0318135 27.9358393,34.5832339 27.9358393,35.2634456 C27.9358393,35.9436572 27.3838896,36.4950777 26.7030251,36.4950777 L26.7030251,36.4950777 Z" id="Path" fill="#CACACA"></path>
                <path d="M40.7733124,43.8785891 L1.23281273,43.8785891 C0.552706781,43.8775172 0.00194032227,43.3264101 0.00194032227,42.6469555 C0.00194032227,41.9675009 0.552706781,41.4163938 1.23281273,41.4153219 L40.7733124,41.4153219 C41.4534183,41.4163938 42.0041848,41.9675009 42.0041848,42.6469555 C42.0041848,43.3264101 41.4534183,43.8775172 40.7733124,43.8785891 L40.7733124,43.8785891 Z" id="Path" fill="#CACACA"></path>
                <polygon id="Path" fill="#9F616A" points="152.20937 164.376299 149.032384 164.375992 147.520906 152.133303 152.209983 152.133609"></polygon>
                <path d="M153.459339,168.768858 L141.329852,168.76841 L141.329852,168.615139 C141.330033,166.010316 143.443664,163.898746 146.050987,163.898608 L146.051294,163.898608 L148.266903,162.219341 L152.400738,163.898862 L153.459569,163.898905 L153.459339,168.768858 Z" id="Path" fill="#2F2E41"></path>
                <path d="M150.358237,106.838157 L148.957009,89.770147 L147.856251,83.3638313 L154.019295,82.0040094 L156.064453,90.7746282 L154.282628,107.311789 C155.017877,108.211947 155.132062,109.468063 154.57116,110.48582 C154.010257,111.503576 152.886743,112.078883 151.732197,111.93954 C150.577651,111.800196 149.623594,110.974145 149.321427,109.852223 C149.019261,108.730302 149.429579,107.537488 150.358243,106.838151 L150.358237,106.838157 Z" id="Path" fill="#9F616A"></path>
                <polygon id="Path" fill="#9F616A" points="135.333356 164.376299 132.15637 164.375992 130.644893 152.133303 135.33397 152.133609"></polygon>
                <path d="M130.248923,110.707381 L128.840506,113.141358 C128.840506,113.141358 127.292939,113.563654 127.798713,118.603523 C128.304487,123.643392 128.326288,153.503268 130.774467,157.177589 L131.217395,160.332799 L135.840462,160.774162 L135.957032,157.974547 L141.469463,119.079136 C141.469463,119.079136 144.716061,157.262054 147.401783,158.196362 L148.371743,161.377517 L152.608515,161.379357 L152.358388,157.630555 L152.631549,110.312882 L130.248923,110.707381 Z" id="Path" fill="#2F2E41"></path>
                <path d="M128.700454,112.955881 L128.603046,112.930852 C131.510052,102.068094 130.671496,88.0018328 128.618924,72.8973987 L128.618964,72.8348242 L136.039338,66.0446867 L142.482907,66.0446867 L148.870647,70.1630345 C153.000235,72.2257582 153.938695,76.5940361 153.94771,76.638028 L153.954067,76.6691267 L151.42381,85.4926608 L153.329959,111.010223 L153.33214,111.039804 L153.321257,111.067363 C152.704359,112.629984 151.051255,112.407492 149.137135,112.14973 C147.226334,111.892348 140.18487,114.245949 138.025762,114.245949 C133.806396,114.245949 129.001927,113.033121 128.700454,112.955881 Z" id="Path" fill="#E4E4E4"></path>
                <polygon id="Path" fill="#E4E4E4" points="147.53298 73.6021978 150.301076 72.3991416 153.948112 76.8663407 156.904231 91.1811616 146.778623 89.6484497"></polygon>
                <path d="M104.956486,99.9988561 L117.610735,88.4466381 L122.008624,83.6564444 L126.856679,87.693865 L121.165056,94.6771149 L106.98313,103.389448 C106.720477,104.521252 105.795962,105.380177 104.64701,105.55983 C103.498058,105.739483 102.355067,105.203839 101.75883,104.206333 C101.162593,103.208826 101.232674,101.949486 101.935915,101.024156 C102.639156,100.098825 103.834536,99.6930602 104.956474,99.9988438 L104.956486,99.9988561 Z" id="Path" fill="#9F616A"></path>
                <path d="M117.335201,88.5723817 L120.840006,84.0253437 C120.869026,83.960136 123.776871,77.4684022 126.297316,74.6478047 C128.882819,71.7543696 130.918303,73.2340619 130.938637,73.2500113 L130.989299,73.2881421 L131.129953,83.9731456 L121.425392,95.5579583 L117.335201,88.5723817 Z" id="Path" fill="#E4E4E4"></path>
                <ellipse id="Oval" fill="#9F616A" transform="translate(138.622009, 58.703684) rotate(-80.782520) translate(-138.622009, -58.703684) " cx="138.622009" cy="58.7036837" rx="5.90130985" ry="5.90668338"></ellipse>
                <path d="M133.221888,57.827662 C133.221888,57.827662 133.174598,55.7530966 132.91205,54.8351371 C132.649503,53.9171776 132.124474,53.1303569 132.386998,53.1303569 C132.649521,53.1303569 132.780786,52.4746627 132.780786,52.4746627 C132.780786,52.4746627 133.043306,52.34353 133.174574,52.4746627 C133.305841,52.6057954 133.437094,51.5567062 133.437094,51.5567062 C133.437094,51.5567062 133.568362,51.1632959 133.699614,51.4255735 C133.830866,51.6878512 133.830882,51.5567062 133.962137,51.1632959 C134.093393,50.7698855 134.749753,50.5076017 134.749753,50.5076017 C134.749753,50.5076017 137.243749,50.6387344 137.637537,50.1141914 C138.031325,49.5896483 142.494263,49.9830526 143.413107,50.6387344 C144.33195,51.2944163 148.401101,53.6548876 147.744777,55.6219456 C147.088454,57.5890035 145.199175,62.1181211 144.725726,62.5722115 C143.977066,63.2902625 143.458773,63.5491621 139.916302,64.2533665 C139.223023,64.3911849 135.684362,62.1302816 135.684362,61.7368713 C135.684362,61.3434609 136.110975,60.0958549 135.425214,59.9245927 C134.388625,59.6656932 134.272012,60.9749541 134.00947,60.5815437 C133.746928,60.1881333 133.221888,57.827662 133.221888,57.827662 Z" id="Path" fill="#2F2E41"></path>
                <path d="M136.583326,168.768858 L124.453838,168.76841 L124.453838,168.615139 C124.45402,166.010316 126.56765,163.898746 129.174974,163.898608 L129.175281,163.898608 L131.390889,162.219341 L135.524724,163.898862 L136.583556,163.898905 L136.583326,168.768858 Z" id="Path" fill="#2F2E41"></path>
                <path d="M199.634656,169 L1.02115991,169 C0.819385868,169 0.655815692,168.836587 0.655815692,168.635006 C0.655815692,168.433426 0.819385868,168.270012 1.02115991,168.270012 L199.634656,168.270012 C199.83643,168.270012 200,168.433426 200,168.635006 C200,168.836587 199.83643,169 199.634656,169 Z" id="Path" fill="#CACACA"></path>
            </g>
        </g>
    </g>
</svg>