<?xml version="1.0" encoding="UTF-8"?>
<svg width="18px" height="16px" viewBox="0 0 18 16" version="1.1" xmlns="http://www.w3.org/2000/svg" xmlns:xlink="http://www.w3.org/1999/xlink">
    <title>Components/Icon/Disabled/Camera Copy</title>
    <defs>
        <path d="M13.908,5.77777778 L15.555,7.55555556 L19.2,7.55555556 L19.2,18.2222222 L4.8,18.2222222 L4.8,7.55555556 L8.445,7.55555556 L10.092,5.77777778 L13.908,5.77777778 M14.7,4 L9.3,4 L7.653,5.77777778 L4.8,5.77777778 C3.81,5.77777778 3,6.57777778 3,7.55555556 L3,18.2222222 C3,19.2 3.81,20 4.8,20 L19.2,20 C20.19,20 21,19.2 21,18.2222222 L21,7.55555556 C21,6.57777778 20.19,5.77777778 19.2,5.77777778 L16.347,5.77777778 L14.7,4 Z M12,10.2222222 C13.485,10.2222222 14.7,11.4222222 14.7,12.8888889 C14.7,14.3555556 13.485,15.5555556 12,15.5555556 C10.515,15.5555556 9.3,14.3555556 9.3,12.8888889 C9.3,11.4222222 10.515,10.2222222 12,10.2222222 M12,8.44444444 C9.516,8.44444444 7.5,10.4355556 7.5,12.8888889 C7.5,15.3422222 9.516,17.3333333 12,17.3333333 C14.484,17.3333333 16.5,15.3422222 16.5,12.8888889 C16.5,10.4355556 14.484,8.44444444 12,8.44444444 Z" id="path-1"></path>
    </defs>
    <g id="Symbols" stroke="none" stroke-width="1" fill="none" fill-rule="evenodd">
        <g id="Artboard" transform="translate(-231.000000, -158.000000)">
            <g id="Shape" transform="translate(228.000000, 154.000000)">
                <use fill="#2A3347" xlink:href="#path-1"></use>
                <use fill-opacity="0.4" fill="#FFFFFF" xlink:href="#path-1"></use>
            </g>
        </g>
    </g>
</svg>