<?xml version="1.0" encoding="UTF-8"?>
<svg width="150px" height="185px" viewBox="0 0 150 185" version="1.1" xmlns="http://www.w3.org/2000/svg" xmlns:xlink="http://www.w3.org/1999/xlink">
    <title>GeneralSupport-Illustration</title>
    <g id="Android-App---AV-Revisions" stroke="none" stroke-width="1" fill="none" fill-rule="evenodd">
        <g id="5-StartSession-EnterPin_Filled" transform="translate(-105.000000, -356.000000)">
            <g id="GeneralSupport-Illustration" transform="translate(105.000000, 356.000000)">
                <path d="M142.863531,33.8709677 L98.5959578,33.8709677 C96.8252549,33.8709677 95.3764979,32.4193548 95.3764979,30.6451613 L95.3764979,3.22580645 C95.3764979,1.4516129 96.8252549,0 98.5959578,0 L142.863531,0 C144.634234,0 146.082991,1.4516129 146.082991,3.22580645 L146.082991,30.6451613 C146.082991,32.4193548 144.634234,33.8709677 142.863531,33.8709677 Z" id="Path" fill="#E2E2E2"></path>
                <path d="M107.851905,58.8709677 L63.584332,58.8709677 C61.813629,58.8709677 60.3648721,57.4193548 60.3648721,55.6451613 L60.3648721,41.9354839 C60.3648721,40.1612903 61.813629,38.7096774 63.584332,38.7096774 L107.851905,38.7096774 C109.622608,38.7096774 111.071365,40.1612903 111.071365,41.9354839 L111.071365,55.6451613 C111.071365,57.4193548 109.622608,58.8709677 107.851905,58.8709677 Z" id="Path" fill="#2A94F4"></path>
                <path d="M142.863531,87.6344086 L98.5959578,87.6344086 C96.8252549,87.6344086 95.3764979,86.1827957 95.3764979,84.4086022 L95.3764979,66.3978495 C95.3764979,64.6236559 96.8252549,63.172043 98.5959578,63.172043 L142.863531,63.172043 C144.634234,63.172043 146.082991,64.6236559 146.082991,66.3978495 L146.082991,84.4086022 C146.082991,86.1827957 144.634234,87.6344086 142.863531,87.6344086 Z" id="Path" fill="#E2E2E2"></path>
                <g id="Group" transform="translate(31.599551, 71.703334)" fill-rule="nonzero">
                    <path d="M76.1450387,62.3558056 C78.9352372,80.1783863 65.064731,79.6407519 60.2355413,79.6407519 C50.2015581,79.6407519 36.3310519,79.6407519 26.0556092,79.6407519 L26.0556092,79.7751605 C19.9118067,80.5816121 13.472887,67.6246228 11.0046345,61.9525798 L11.0046345,61.8988164 C29.2750691,62.0063433 54.7624595,62.0869884 76.1450387,62.1945153 L76.1450387,62.3558056 Z" id="Path" fill="#FA968C"></path>
                    <path d="M74.6426241,107.974085 C74.1865339,107.866558 73.703615,107.73215 73.2475248,107.597741 C70.9402453,107.033225 68.7134522,106.522472 66.4866591,106.146128 C63.1330551,105.581612 59.7794511,105.366558 56.0234146,105.716021 C56.4258471,107.140752 56.9087661,108.888064 57.1770544,110.581612 C57.3380274,111.549354 57.4453427,112.490214 57.4453427,113.296666 C55.8892705,112.355806 54.521,110.904193 53.0990719,109.533225 C51.1405672,107.624623 49.101576,105.850429 46.3650351,105.608494 C44.2723862,105.500967 38.8529621,106.388064 34.238403,107.490214 C31.5555198,108.135376 29.1409249,108.8343 27.8799698,109.45258 C27.7189968,109.533225 27.5580238,109.61387 27.4507085,109.694515 C29.3555556,108.162257 31.1799162,106.737526 33.1115921,105.474085 L33.1384209,105.474085 C34.560349,104.533225 35.9822771,103.699892 37.4846917,102.947203 C35.6871599,102.920322 33.3262227,102.597741 31.3945468,102.705268 C31.3408892,102.517096 31.3408892,102.355806 31.367718,102.194515 L31.2872315,102.11387 L31.2872315,102.086988 C34.5335202,99.8020422 41.5626742,100.151505 45.1845665,100.151505 C45.1845665,100.366558 45.1845665,100.608494 45.1845665,100.796666 C46.2577198,102.409569 50.2552158,102.759031 51.1405672,101.065483 L51.1137384,101.038601 C51.1137384,100.769784 51.1137384,100.447203 51.1137384,100.124623 C58.679469,99.9633325 68.4988215,103.861182 74.6426241,107.974085 Z" id="Path" fill="#595959"></path>
                    <polygon id="Path" fill="#595959" points="57.4721716 78.8343003 57.4721716 85.017096 51.1137384 85.017096 45.1845665 85.017096 38.0212683 85.017096 38.0212683 78.8343003"></polygon>
                    <path d="M15.4045629,29.6407519 C14.2240943,23.7805368 13.9021483,17.9740852 15.2435899,13.9955906 C17.6581848,7.4364508 21.7898249,6.46870886 27.853141,5.98483789 C32.9506191,5.74290241 39.4968541,5.25903144 42.9041158,9.85580564 L43.2260618,9.74827875 C46.7674676,19.4256981 50.3088734,35.4740852 52.4820088,45.205268 L20.5556987,45.205268 C20.502041,45.0977411 20.4483833,44.9902142 20.3947257,44.9095691 L22.3532304,44.9095691 L15.4045629,29.6407519 Z" id="Path" fill="#FAB9AF"></path>
                    <path d="M51.1137384,101.092365 L51.1137384,101.092365 C50.2283869,102.785913 46.2308909,102.436451 45.1845665,100.823548 C45.1845665,100.608494 45.1845665,100.39344 45.1845665,100.178386 C45.1845665,95.0977411 45.1845665,85.017096 45.1845665,85.017096 L51.1137384,85.017096 C51.1137384,85.017096 51.1137384,95.0977411 51.1137384,100.178386 C51.1137384,100.500967 51.1137384,100.823548 51.1137384,101.092365 Z" id="Path" fill="#808281"></path>
                    <path d="M0.0852998142,22.0601067 C-0.987853468,3.51171961 8.37540892,2.16763359 10.7363461,1.62999918 C17.953302,0.0708593988 37.5115205,-2.21408684 41.3212147,4.88268736 C42.0455931,6.22677338 42.7968004,7.94720348 43.5211789,9.96333252 L43.1992329,10.0708594 C39.7919713,5.47408521 33.2457362,5.93107445 28.1482581,6.19989166 C22.0849421,6.68376262 17.953302,7.65150456 15.5387071,14.2106443 C14.1972655,18.189139 21.4410501,39.3181712 22.6215187,45.1783863 L7.06079615,45.1783863 L0.0852998142,22.0601067 Z" id="Path" fill="#FA968C"></path>
                </g>
                <ellipse id="Oval" fill="#0E538C" fill-rule="nonzero" transform="translate(71.246241, 72.381981) rotate(-71.041444) translate(-71.246241, -72.381981) " cx="71.2462413" cy="72.3819812" rx="15.1051288" ry="11.7003796"></ellipse>
                <path d="M85.0205688,55.1612903 C85.0205688,55.1612903 91.9424074,58.6827957 91.6472903,64.327957 C91.6472903,64.327957 94.9204621,61.5322581 94.9204621,52.9032258 C94.9472366,46.9086022 85.0205688,55.1612903 85.0205688,55.1612903 Z" id="Path" fill="#0E538C" fill-rule="nonzero"></path>
                <polygon id="Path" fill="#FAB9AF" fill-rule="nonzero" points="84.3766768 84.6774194 74.7182973 81.1290323 79.0913969 68.9247312 86.5229834 71.344086"></polygon>
                <path d="M86.5229834,71.344086 L79.0913969,68.8978495 L77.1328921,72.7150538 C78.4743338,74.9731183 79.8426042,79.5698925 82.6328027,80.1075269 C83.5181542,80.2688172 84.3766768,80.188172 85.1815418,79.8655914 L86.5229834,71.344086 Z" id="Path" fill="#FA968C" fill-rule="nonzero"></path>
                <path d="M86.8717582,77.016129 C84.5913075,77.2311828 82.0425684,76.3172043 78.3938473,73.655914 C76.3011984,72.1236559 74.5841531,69.3010753 74.3963513,67.2849462 L73.3768557,56.2096774 L90.413164,54.6505376 C90.413164,54.6505376 92.2375246,60.4301075 91.5131461,66.3709677 C90.9765695,70.8333333 88.6424611,76.8548387 86.8717582,77.016129 Z" id="Path" fill="#FAB9AF" fill-rule="nonzero"></path>
                <path d="M71.3915221,57.7419355 C71.0695761,54.2741935 73.6183151,51.2096774 77.0792345,50.9139785 L82.8206045,50.4032258 C84.4571633,50.2419355 86.0132356,49.6774194 87.3546772,48.7634409 C89.2863531,47.4193548 91.8887498,47.5806452 93.4179932,49.327957 C95.1082096,51.2365591 95.9935611,53.8978495 92.4253264,56.7473118 C90.6546235,58.172043 87.7839385,57.0430108 85.9864067,57.7956989 C85.8790914,57.7956989 85.7717761,57.7956989 85.6644607,57.7956989 L80.5938115,58.2526882 C78.8231086,58.4139785 77.6158111,59.9731183 77.7231265,61.7473118 C77.8036129,62.8763441 76.9719192,63.844086 75.8451082,63.9516129 L75.6304776,63.9784946 L74.5841531,61.4516129 L72.1159006,65.5376344 L71.3915221,57.7419355 Z" id="Path" fill="#0E538C" fill-rule="nonzero"></path>
                <path d="M89.1253801,54.5698925 C88.7766053,57.1505376 89.7424432,58.4677419 81.8279378,63.172043 C73.9134323,67.8763441 71.1232338,66.4247312 68.9232695,70.9139785 C68.9232695,70.9139785 69.4061885,63.7634409 73.7792881,60.9408602 C78.1255589,58.0913978 85.9327491,55.8064516 87.9449115,49.9731183 C87.9449115,49.9731183 89.3400107,52.8225806 89.1253801,54.5698925 Z" id="Path" fill="#0E538C" fill-rule="nonzero"></path>
                <path d="M87.5693078,55.188172 C87.5693078,55.188172 88.6692899,63.6827957 96.4764801,67.0967742 C96.4764801,67.0967742 92.6131282,60.9408602 92.4521552,56.7204301 C92.2911823,52.5 86.8181005,52.3387097 87.5693078,55.188172 Z" id="Path" fill="#0E538C" fill-rule="nonzero"></path>
                <path d="M71.6866392,65.5376344 C72.518333,67.5537634 74.128063,68.7903226 75.3085316,68.3064516 C76.4890002,67.8225806 76.7304597,64.6505376 75.8987659,62.6344086 C75.0670721,60.6182796 73.5109998,60.5376344 72.3305312,61.0215054 C71.1500626,61.5053763 70.8549454,63.5215054 71.6866392,65.5376344 Z" id="Path" fill="#FAB9AF" fill-rule="nonzero"></path>
                <g id="XMLID_5_" transform="translate(55.025935, 78.817204)" fill-rule="nonzero">
                    <g id="Group">
                        <path d="M49.4455375,103.11828 C49.4991951,103.225806 49.526024,103.306452 49.526024,103.413978 C49.526024,103.521505 49.4455375,103.602151 49.365051,103.682796 C48.5333572,104.569892 47.2455732,104.892473 46.0382758,104.83871 C44.8309784,104.784946 43.6773386,104.354839 42.5505276,103.951613 C40.6993382,103.27957 38.8481488,102.607527 36.9969594,101.962366 C36.2725809,100.77957 35.2262565,99.8387097 34.018959,99.1129032 C34.1531032,98.7096774 34.3140762,98.3333333 34.5287069,97.983871 C34.6360222,98.0645161 34.7433375,98.1182796 34.8774817,98.172043 C36.2725809,98.8709677 38.5798605,98.8978495 40.4847076,98.7634409 C40.4847076,98.5752688 40.4847076,98.3602151 40.4847076,98.172043 C40.4847076,97.9301075 40.4847076,97.688172 40.4847076,97.4462366 C41.9066357,97.688172 43.3017349,98.0376344 44.6163477,98.655914 C46.6821678,99.5967742 48.4796995,101.129032 49.4455375,103.11828 Z" id="Path" fill="#965D53"></path>
                        <path d="M38.7408335,48.9516129 L46.2529065,49.0322581 C42.2822393,66.7204301 40.6993382,79.7580645 40.5115364,97.5 C40.1091039,97.4462366 39.7066714,97.3924731 39.304239,97.3387097 C39.3310678,97.6075269 39.3578966,97.8494624 39.4115543,98.1182796 C37.8286532,98.4946237 35.8701485,98.7365591 34.5823645,97.9569892 C34.5823645,97.983871 34.5555357,97.983871 34.5555357,98.0107527 C34.340905,97.8494624 34.1262744,97.6612903 33.9921302,97.4731183 C33.6701842,96.9892473 33.6701842,96.4516129 33.6701842,95.9408602 C33.6433554,85 33.5896977,74.0591398 33.5628689,63.1182796 L36.8896441,63.1182796 C39.9213021,63.1182796 42.3895546,60.6451613 42.3895546,57.6075269 L42.3895546,54.1129032 C42.3895546,53.9516129 42.3895546,53.8172043 42.3627258,53.655914 C42.174924,51.4784946 40.7261671,49.6505376 38.7408335,48.9516129 Z" id="Path" fill="#0E538C"></path>
                        <path d="M43.2480773,15.6182796 C45.850474,26.8010753 46.9236273,25.9408602 47.0577714,37.4462366 C47.0577714,37.4462366 42.2822393,39.9731183 40.2700769,37.2311828 C40.4847076,35.7795699 40.5383652,34.327957 40.4042211,32.8763441 C40.4042211,32.8494624 40.4042211,32.8494624 40.4042211,32.8225806 C40.1359327,29.7043011 39.1164371,26.6935484 39.0627795,23.5752688 C38.9554641,18.6827957 41.1822572,13.8172043 40.2432481,9.05913978 C39.7603291,6.55913978 38.4457163,4.46236559 36.8359864,2.6344086 C36.5140404,2.25806452 36.1652656,1.90860215 35.8164908,1.58602151 C35.8164908,1.58602151 35.8164908,1.58602151 35.8164908,1.58602151 C35.5482025,1.29032258 35.2530853,0.994623656 34.9579682,0.698924731 C37.1311036,2.04301075 38.8481488,4.11290323 40.1091039,6.39784946 C41.6651762,9.24731183 42.5236988,12.4193548 43.2480773,15.6182796 Z" id="Path" fill="#0B4870"></path>
                        <path d="M42.3627258,54.1129032 L42.3627258,57.6075269 C42.3627258,60.6451613 39.8944733,63.1182796 36.8628152,63.1182796 L33.5360401,63.1182796 C33.5360401,61.3709677 33.5360401,59.6505376 33.5092112,57.9032258 C33.5092112,57.1774194 33.4823824,56.4516129 33.4287247,55.6989247 L37.533536,55.6989247 L40.0822751,55.6989247 L40.2432481,55.6989247 C40.7529959,55.6989247 41.2359149,55.483871 41.5578608,55.1344086 C41.9066357,54.7849462 42.1212663,54.327957 42.1212663,53.8172043 C42.1212663,53.7634409 42.1212663,53.7096774 42.1212663,53.655914 L42.3627258,53.6290323 C42.3627258,53.8172043 42.3627258,53.9516129 42.3627258,54.1129032 Z" id="Path" fill="#0E538C"></path>
                        <path d="M42.335897,53.655914 L42.0944375,53.6827957 C42.0407798,52.9301075 41.531032,52.311828 40.8334824,52.0698925 C40.6456806,51.9892473 40.4310499,51.9623656 40.2164192,51.9623656 L32.5165444,51.9623656 C32.1677696,51.2096774 31.6848507,50.5107527 31.0141299,49.8655914 C30.3434091,50.5107527 29.8604901,51.2096774 29.5117153,51.9623656 L16.8753354,51.9623656 C16.6607047,50.9139785 16.4192452,49.8387097 16.1777857,48.7365591 L38.7140047,48.9516129 C40.7261671,49.6505376 42.174924,51.4784946 42.335897,53.655914 Z" id="Path" fill="#0E538C"></path>
                        <path d="M42.1212663,53.6827957 C42.1212663,53.7365591 42.1212663,53.7903226 42.1212663,53.844086 C42.1212663,54.3548387 41.9066357,54.8387097 41.5578608,55.1612903 C41.209086,55.5107527 40.7529959,55.7258065 40.2432481,55.7258065 L40.0822751,55.7258065 L37.533536,55.7258065 L33.4287247,55.7258065 C33.3214094,54.4354839 33.0799499,53.1451613 32.5165444,51.9623656 L40.2164192,51.9623656 C40.4310499,51.9623656 40.6456806,51.9892473 40.8334824,52.0698925 C41.5578608,52.2849462 42.0407798,52.9301075 42.1212663,53.6827957 Z" id="Path" fill="#0E538C"></path>
                        <path d="M40.5115364,97.4731183 C40.5115364,97.7150538 40.5115364,97.9569892 40.5115364,98.1989247 C40.5115364,98.3870968 40.5115364,98.6021505 40.5115364,98.7903226 C38.6066893,98.9247312 36.2725809,98.8978495 34.9043105,98.1989247 C34.7969952,98.1451613 34.662851,98.0645161 34.5555357,98.0107527 C34.5555357,97.983871 34.5823645,97.9569892 34.5823645,97.9569892 C35.8701485,98.7365591 37.8286532,98.4946237 39.4115543,98.1182796 C39.3847255,97.8494624 39.3310678,97.6075269 39.304239,97.3387097 C39.7066714,97.3655914 40.1091039,97.4193548 40.5115364,97.4731183 Z" id="Path" fill="#0E538C"></path>
                        <path d="M40.4310499,32.8763441 C40.5651941,34.327957 40.5115364,35.8064516 40.2969057,37.2311828 C40.0822751,36.9354839 39.9213021,36.5860215 39.7603291,36.1827957 C39.7603291,36.155914 39.7603291,36.155914 39.7603291,36.1290323 C39.3847255,32.4731183 38.0432838,28.9247312 37.9627974,25.2688172 C37.8286532,19.5430108 40.8066536,13.8172043 39.5456984,8.22580645 C38.982293,5.67204301 37.6140225,3.49462366 35.8701485,1.58602151 C36.2189233,1.93548387 36.5408693,2.28494624 36.8896441,2.6344086 C38.499374,4.43548387 39.7871579,6.53225806 40.2969057,9.05913978 C41.2359149,13.8172043 39.0091218,18.6827957 39.1164371,23.5752688 C39.1700948,26.7204301 40.1895904,29.7043011 40.4578787,32.8225806 C40.4042211,32.8494624 40.4042211,32.8494624 40.4310499,32.8763441 Z" id="Path" fill="#D3D3D3"></path>
                        <path d="M39.7603291,36.1827957 C39.8944733,36.5860215 40.0822751,36.9623656 40.2969057,37.2311828 C39.9213021,39.8655914 39.0091218,42.3924731 37.6676802,44.5698925 C37.533536,44.516129 37.372563,44.4892473 37.2115901,44.4892473 L17.0094795,44.4892473 C16.8485065,44.4892473 16.6875335,44.516129 16.5265605,44.5698925 C15.8021821,43.4139785 15.2119478,42.1236559 14.7558576,40.8064516 C14.9704883,40.6182796 15.1046324,40.3763441 15.1046324,40.0806452 L15.1582901,38.6290323 L15.1851189,38.0913978 L15.1851189,37.9301075 C15.9631551,38.1989247 16.7411912,38.4677419 17.5460562,38.6827957 C19.3704167,39.1397849 21.3825791,39.3548387 23.2069397,39.0053763 C23.5288857,38.9516129 23.8776605,38.844086 24.1459488,38.7096774 C24.4142372,38.5483871 24.6556967,38.3602151 24.7898408,38.1182796 C24.280093,38.2795699 23.6630299,38.3333333 23.0459667,38.2795699 C21.1142908,38.0913978 22.3484171,38.1451613 22.4825613,36.7204301 C22.6167054,35.2956989 21.5972098,35.6451613 23.5288857,35.8064516 C24.602039,35.9139785 25.5142193,36.344086 26.1044536,36.9623656 C26.7483456,36.5322581 29.4043999,35.6451613 29.1092828,35.0268817 C28.7873368,34.3817204 25.5678769,31.5860215 24.6825255,31.4247312 C22.0801288,30.9139785 19.2362726,31.6935484 17.7875157,33.2795699 C17.4923985,33.6290323 17.2241102,34.0053763 16.8216777,34.2741935 C16.4192452,34.5430108 15.8826686,34.7043011 15.3192631,34.7311828 L15.2924343,35.0537634 L15.3192631,34.3548387 L15.3460919,33.3333333 C15.3729208,32.7688172 14.9436595,32.311828 14.380254,32.2849462 L13.575389,32.2580645 L12.6363799,32.2311828 C12.3680916,32.2311828 12.1266321,32.311828 11.9388303,32.5 C12.5290646,29.327957 14.2461098,29.6236559 14.3534251,26.1021505 C14.541227,20.3763441 10.4095868,14.6505376 12.1534609,9.05913978 C13.0119835,6.29032258 15.1851189,3.9516129 17.9216598,1.90860215 C18.6728671,1.61290323 19.5850474,1.34408602 20.2021105,1.07526882 C20.4972277,0.940860215 20.765516,1.12903226 20.926489,1.42473118 C20.926489,1.4516129 20.9533178,1.4516129 20.9533178,1.47849462 C21.5972098,2.20430108 22.4289036,2.6344086 23.2874262,2.98387097 C24.5215525,3.46774194 25.8093364,3.76344086 27.0971204,3.89784946 C27.0971204,3.89784946 27.0971204,3.89784946 27.0971204,3.89784946 C28.3849043,3.76344086 29.6458594,3.46774194 30.8799857,2.98387097 C31.7385083,2.66129032 32.5702021,2.2311828 33.2140941,1.47849462 C33.5896977,1.0483871 33.857986,0.537634409 34.0726167,0 C34.6896798,0.510752688 35.2799141,1.0483871 35.8701485,1.61290323 C35.8701485,1.61290323 35.8701485,1.61290323 35.8701485,1.61290323 C37.6140225,3.52150538 38.982293,5.69892473 39.5456984,8.25268817 C40.8066536,13.844086 37.8286532,19.5430108 37.9627974,25.2956989 C38.0432838,28.9784946 39.4115543,32.5 39.7603291,36.155914 C39.7603291,36.1290323 39.7603291,36.155914 39.7603291,36.1827957 Z" id="Path" fill="#D3D3D3"></path>
                        <path d="M38.7408335,48.9516129 L16.2046146,48.7365591 C16.446074,49.811828 16.6875335,50.8870968 16.9021642,51.9623656 L13.1997854,51.9623656 C12.9851547,51.9623656 12.7705241,51.9892473 12.5827222,52.0698925 C12.3144339,52.1505376 12.0729744,52.311828 11.8851726,52.5 C11.5363978,52.8494624 11.3217671,53.3064516 11.3217671,53.8172043 C11.3217671,54.8655914 12.1534609,55.6989247 13.1997854,55.6989247 L13.3607584,55.6989247 L15.9094974,55.6989247 L17.6802003,55.6989247 C18.1631193,58.2258065 18.6192094,60.6989247 18.9948131,63.1182796 L10.0339832,63.1182796 C7.00232517,63.1182796 4.53407262,60.6451613 4.53407262,57.6075269 L4.53407262,54.1129032 C4.53407262,51.0752688 7.00232517,48.6021505 10.0339832,48.6021505 L36.8628152,48.6021505 C37.533536,48.6021505 38.1505992,48.7096774 38.7408335,48.9516129 Z" id="Path" fill="#0E538C"></path>
                        <path d="M37.1042747,102.123656 C37.1579324,102.204301 37.2115901,102.311828 37.2115901,102.419355 C37.2115901,102.526882 37.1311036,102.634409 37.0774459,102.715054 C36.3262386,103.655914 35.0921123,104.112903 33.8848149,104.166667 C32.6775174,104.22043 31.4970488,103.897849 30.3165802,103.602151 C27.4190664,102.849462 24.5483813,102.096774 21.6508675,101.344086 C21.5435521,101.317204 21.409408,101.290323 21.3289215,101.182796 C21.248435,101.075269 21.2216062,100.913978 21.2216062,100.77957 C21.2216062,100.107527 21.3825791,99.4354839 21.6240386,98.7903226 C23.5288857,98.9247312 25.8093364,98.8978495 27.1776069,98.1989247 C27.5532105,98.0107527 27.8751565,97.7688172 28.0629583,97.4462366 C28.0897872,97.4193548 28.116616,97.3655914 28.116616,97.3387097 C29.4043999,97.4462366 30.665355,97.688172 31.8994813,98.1182796 C32.6506886,98.3870968 33.3482382,98.7096774 34.018959,99.1129032 C33.8848149,99.516129 33.8043284,99.9193548 33.7506707,100.322581 C33.7238419,100.456989 33.7238419,100.61828 33.8043284,100.725806 C33.8848149,100.833333 33.9921302,100.860215 34.0994455,100.913978 C35.0652835,101.263441 36.0042926,101.612903 36.9701306,101.962366 C37.0506171,102.016129 37.0774459,102.069892 37.1042747,102.123656 Z" id="Path" fill="#965D53"></path>
                        <path d="M36.9969594,101.962366 C36.0311214,101.612903 35.0652835,101.263441 34.1262744,100.913978 C34.018959,100.887097 33.8848149,100.833333 33.8311572,100.725806 C33.7506707,100.61828 33.7506707,100.456989 33.7774996,100.322581 C33.8311572,99.9193548 33.9116437,99.516129 34.0457879,99.1129032 C35.2262565,99.8387097 36.2725809,100.806452 36.9969594,101.962366 Z" id="Path" fill="#965D53"></path>
                        <path d="M33.5360401,57.9032258 C33.5360401,59.6505376 33.5360401,61.3709677 33.5628689,63.1182796 L28.5190485,63.1182796 C28.5190485,61.3709677 28.5190485,59.6505376 28.5458773,57.9032258 C28.5458773,57.1774194 28.5727061,56.4516129 28.6263638,55.6989247 L33.4823824,55.6989247 C33.5092112,56.4516129 33.5360401,57.1774194 33.5360401,57.9032258 Z" id="Path" fill="#0E538C"></path>
                        <path d="M33.4555536,55.6989247 L28.599535,55.6989247 C28.7068503,54.4086022 28.9483098,53.1182796 29.5117153,51.9354839 L32.5165444,51.9354839 C33.1067788,53.1451613 33.3482382,54.4086022 33.4555536,55.6989247 Z" id="Path" fill="#0E538C"></path>
                        <path d="M32.5433733,51.9354839 L29.5385441,51.9354839 C29.8873189,51.1827957 30.3702379,50.483871 31.0409587,49.8387097 C31.6848507,50.483871 32.1677696,51.2096774 32.5433733,51.9354839 Z" id="Path" fill="#0E538C"></path>
                        <path d="M16.9021642,51.9354839 L29.5385441,51.9354839 C28.9751386,53.1182796 28.7336791,54.4086022 28.6263638,55.6989247 L17.6802003,55.6989247 C17.4387408,54.4623656 17.1704525,53.2258065 16.9021642,51.9354839 Z" id="Path" fill="#0E538C"></path>
                        <path d="M29.0824539,35.0268817 C29.3775711,35.6451613 26.7215167,36.5591398 26.0776248,36.9623656 C25.4873904,36.344086 24.5752102,35.9139785 23.5020569,35.8064516 C21.570381,35.6182796 22.5898766,35.2956989 22.4557324,36.7204301 C22.3215883,38.1451613 21.1142908,38.0913978 23.0191379,38.2795699 C23.636201,38.3333333 24.2264353,38.2795699 24.763012,38.1182796 C24.6288678,38.3602151 24.4142372,38.5483871 24.11912,38.7096774 C23.8240029,38.844086 23.5020569,38.9247312 23.1801109,39.0053763 C21.3557503,39.3548387 19.3704167,39.1666667 17.5192273,38.6827957 C16.7143624,38.4677419 15.9363262,38.2258065 15.1582901,37.9301075 L15.2387766,35.6451613 L15.2656054,35.0268817 L15.2924343,34.7043011 C15.8558397,34.6774194 16.3924164,34.5430108 16.7948489,34.2473118 C17.1972813,33.9784946 17.4387408,33.6021505 17.7606868,33.2526882 C19.1826149,31.6666667 22.0532999,30.8870968 24.6556967,31.3978495 C25.5410481,31.5860215 28.760508,34.3817204 29.0824539,35.0268817 Z" id="Path" fill="#FAB9AF"></path>
                        <path d="M17.6802003,55.6989247 L28.6263638,55.6989247 C28.5727061,56.4247312 28.5458773,57.1774194 28.5458773,57.9032258 C28.5458773,59.6505376 28.5458773,61.3709677 28.5190485,63.1182796 L18.9948131,63.1182796 C18.5923806,60.6989247 18.1631193,58.2526882 17.6802003,55.6989247 Z" id="Path" fill="#0E538C"></path>
                        <path d="M18.9948131,63.1182796 L28.5190485,63.1182796 C28.4922196,74.0591398 28.438562,85 28.4117331,95.9408602 C28.4117331,96.4247312 28.4117331,96.9086022 28.1434448,97.3655914 C27.5800393,97.311828 27.0166339,97.2849462 26.4800572,97.2849462 C26.5337149,97.5537634 26.5873726,97.7956989 26.6410302,98.0645161 C25.1117868,98.6021505 23.1801109,99.0053763 21.8386693,98.3602151 C21.7581828,98.5215054 21.6776963,98.6827957 21.6240386,98.844086 C21.5972098,98.844086 21.5972098,98.844086 21.570381,98.844086 C21.570381,98.655914 21.570381,98.4408602 21.570381,98.2526882 C21.4362368,85.2419355 20.8191737,74.6505376 18.9948131,63.1182796 Z" id="Path" fill="#0E538C"></path>
                        <path d="M28.1434448,97.3655914 C28.116616,97.3924731 28.116616,97.4462366 28.0897872,97.4731183 C27.8751565,97.7688172 27.5800393,98.0376344 27.2044357,98.2258065 C25.8361653,98.9247312 23.5557145,98.9516129 21.6508675,98.8172043 C21.7045251,98.655914 21.7850116,98.4946237 21.8654981,98.3333333 C23.2069397,98.9784946 25.1386156,98.5752688 26.6678591,98.0376344 C26.6142014,97.7688172 26.5605437,97.5268817 26.5068861,97.2580645 C27.0166339,97.2849462 27.5800393,97.311828 28.1434448,97.3655914 Z" id="Path" fill="#0E538C"></path>
                        <path d="M18.4582365,1.47849462 C18.2704346,1.61290323 18.0826328,1.74731183 17.9216598,1.88172043 C17.2777678,2.12365591 16.7143624,2.3655914 16.4997317,2.6344086 C14.8900018,4.43548387 12.4217492,6.72043011 11.9388303,9.22043011 C10.9998211,13.9784946 12.5022357,20.5645161 12.4217492,25.4569892 C12.3680916,28.6021505 11.348596,29.7311828 11.0803076,32.8225806 C11.0803076,32.8225806 11.348596,32.8225806 11.6973708,32.8494624 C11.6705419,32.9569892 11.6437131,33.0645161 11.6437131,33.172043 L11.6168843,33.5752688 L11.4022536,39.2473118 L11.3754248,39.9462366 C11.348596,40.4301075 11.6705419,40.8333333 12.0998033,40.9677419 L0.804864962,40.9408602 C0.992666786,29.4354839 3.40726167,27.6344086 7.00232517,16.4516129 C8.02182078,13.2795699 9.20228939,10.0806452 11.348596,7.20430108 C13.0388124,4.91935484 15.4534073,2.84946237 18.4582365,1.47849462 Z" id="Path" fill="#0B4870"></path>
                        <path d="M17.6802003,55.6989247 L15.9094974,55.6989247 L13.3607584,55.6989247 L13.1997854,55.6989247 C12.1534609,55.6989247 11.3217671,54.8655914 11.3217671,53.8172043 C11.3217671,53.3064516 11.5363978,52.8225806 11.8851726,52.5 C12.0729744,52.311828 12.3144339,52.1505376 12.5827222,52.0698925 C12.7705241,51.9892473 12.9851547,51.9623656 13.1997854,51.9623656 L16.9021642,51.9623656 C17.1704525,53.2258065 17.4387408,54.4623656 17.6802003,55.6989247 Z" id="Path" fill="#0E538C"></path>
                        <path d="M16.4729029,2.6344086 C16.6875335,2.3655914 17.250939,2.12365591 17.894831,1.88172043 C15.1582901,3.92473118 12.9851547,6.26344086 12.1266321,9.03225806 C10.382758,14.6236559 14.4875693,20.3225806 14.3265963,26.0752688 C14.219281,29.5967742 12.5022357,29.3010753 11.9120014,32.4731183 C11.8046861,32.5806452 11.6973708,32.7150538 11.6437131,32.8494624 C11.2949383,32.8494624 11.02665,32.8494624 11.02665,32.8225806 C11.2949383,29.7043011 12.3144339,28.5752688 12.3680916,25.4569892 C12.4754069,20.5645161 10.9461635,14.0053763 11.8851726,9.22043011 C12.3949204,6.72043011 14.863173,4.43548387 16.4729029,2.6344086 Z" id="Path" fill="#D3D3D3"></path>
                        <path d="M14.380254,32.2849462 C14.9436595,32.311828 15.3729208,32.7688172 15.3460919,33.3333333 L15.3192631,34.3548387 L15.2924343,35.0537634 L15.2924343,35.1344086 L15.1314613,36.9354839 L15.0509748,37.9032258 L14.9973171,37.9032258 C14.9973171,36.7741935 14.380254,35.672043 13.6827043,34.7849462 C13.6827043,34.1666667 13.6827043,33.5483871 13.736362,32.9301075 C13.736362,32.9301075 13.6827043,32.9301075 13.5485602,32.9301075 L13.575389,32.2849462 L14.380254,32.2849462 Z" id="Path" fill="#F7F7F7"></path>
                        <path d="M15.2656054,35.1075269 L15.2656054,35.0268817 L15.2387766,35.6451613 L15.1582901,37.9301075 C15.1046324,37.9032258 15.0509748,37.9032258 15.0241459,37.8763441 L15.1046324,36.9086022 L15.2656054,35.1075269 Z" id="Path" fill="#FAB9AF"></path>
                        <path d="M15.1582901,37.9301075 L15.1582901,38.0913978 L15.1314613,38.6290323 L15.0778036,40.0806452 C15.0778036,40.3763441 14.9436595,40.6182796 14.7290288,40.8064516 C14.5948846,40.4301075 14.4875693,40.0537634 14.380254,39.6774194 C14.8095153,39.0860215 14.9704883,38.4677419 14.9704883,37.8763441 L15.0241459,37.8763441 C15.0778036,37.8763441 15.1046324,37.9032258 15.1582901,37.9301075 Z" id="Path" fill="#F7F7F7"></path>
                        <path d="M14.9704883,37.8763441 C14.9704883,38.4946237 14.8095153,39.0860215 14.380254,39.6774194 C13.9241638,38.0913978 13.6827043,36.4247312 13.6558755,34.7311828 C14.3534251,35.6182796 14.9704883,36.7473118 14.9704883,37.8763441 Z" id="Path" fill="#F7F7F7"></path>
                        <path d="M14.380254,39.6774194 C14.4875693,40.0537634 14.5948846,40.4301075 14.7290288,40.8064516 C14.541227,40.9677419 14.2997675,41.0483871 14.0314792,41.0483871 L12.2876051,40.9677419 C12.2071186,40.9677419 12.1266321,40.9408602 12.0729744,40.9408602 L12.9851547,40.9408602 C13.6022179,40.5376344 14.058308,40.1075269 14.380254,39.6774194 Z" id="Path" fill="#F7F7F7"></path>
                        <path d="M13.736362,32.8763441 C13.6827043,33.4946237 13.6558755,34.1129032 13.6827043,34.7311828 C12.8241817,33.6290323 11.8851726,32.9032258 11.8851726,32.8763441 C11.8851726,32.8494624 11.8851726,32.8494624 11.8851726,32.8225806 C12.4754069,32.8225806 13.2266142,32.8494624 13.575389,32.8494624 C13.6558755,32.8763441 13.736362,32.8763441 13.736362,32.8763441 Z" id="Path" fill="#F7F7F7"></path>
                        <path d="M13.6558755,34.7580645 C13.6827043,36.4247312 13.9241638,38.0913978 14.380254,39.7043011 C14.058308,40.1344086 13.6022179,40.5645161 12.9851547,40.9677419 L12.0729744,40.9677419 C11.6437131,40.8602151 11.3217671,40.4301075 11.348596,39.9462366 L11.3754248,39.2473118 L11.5900554,33.5752688 L11.6168843,33.172043 C11.6168843,33.0645161 11.6437131,32.9569892 11.6705419,32.8494624 C11.7241996,32.8494624 11.8046861,32.8494624 11.8851726,32.8494624 C11.8851726,32.8763441 11.8851726,32.8763441 11.8851726,32.9032258 C11.8583438,32.9032258 12.7973529,33.655914 13.6558755,34.7580645 Z" id="Path" fill="#F7F7F7"></path>
                        <path d="M13.575389,32.2311828 L13.5485602,32.8763441 C13.1997854,32.8763441 12.4485781,32.8494624 11.8583438,32.8494624 C11.8851726,32.7150538 11.8851726,32.5806452 11.9120014,32.4462366 C12.0998033,32.2849462 12.3412627,32.1774194 12.6095511,32.1774194 L13.575389,32.2311828 Z" id="Path" fill="#F7F7F7"></path>
                        <path d="M11.9388303,32.4462366 C11.9120014,32.5806452 11.8851726,32.7150538 11.8851726,32.8494624 C11.8046861,32.8494624 11.7510284,32.8494624 11.6705419,32.8494624 C11.7241996,32.688172 11.8046861,32.5537634 11.9388303,32.4462366 Z" id="Path" fill="#F7F7F7"></path>
                        <path d="M0.160972992,66.3709677 L0.160972992,66.4784946 C0.13414416,66.4516129 0.13414416,66.4516129 0.107315328,66.4247312 C0.107315328,66.3978495 0.13414416,66.3978495 0.160972992,66.3709677 Z" id="Path" fill="#000000"></path>
                    </g>
                </g>
                <g id="Group" transform="translate(71.352779, 50.053763)" fill-rule="nonzero">
                    <g transform="translate(0.000000, 10.349462)" id="Path">
                        <path d="M2.07773478,0.806451613 C0.709464341,0.806451613 -0.202715949,2.12365591 0.0387435394,3.73655914 L0.682635509,7.87634409 C0.924094997,9.48924731 2.23870777,10.8064516 3.6069782,10.8064516 L5.61914061,10.8064516 C6.98741104,10.8064516 7.89959133,9.48924731 7.65813184,7.87634409 L7.01423987,3.73655914 C6.77278038,2.12365591 5.45816761,0.806451613 4.08989718,0.806451613 L2.07773478,0.806451613 Z" fill="#3E4546"></path>
                        <path d="M1.94359062,0.806451613 C1.91676178,0.806451613 1.88993295,0.806451613 1.86310412,0.806451613 C1.86310412,0.806451613 1.83627529,0.806451613 1.83627529,0.806451613 C1.80944645,0.806451613 1.78261762,0.806451613 1.78261762,0.806451613 C1.78261762,0.806451613 1.75578879,0.806451613 1.75578879,0.806451613 C1.72895996,0.806451613 1.70213113,0.806451613 1.67530229,0.806451613 C1.67530229,0.806451613 1.64847346,0.806451613 1.64847346,0.806451613 C1.62164463,0.806451613 1.5948158,0.833333333 1.56798697,0.833333333 C1.56798697,0.833333333 1.56798697,0.833333333 1.56798697,0.833333333 C1.54115813,0.833333333 1.5143293,0.860215054 1.48750047,0.860215054 C1.48750047,0.860215054 1.46067164,0.860215054 1.46067164,0.860215054 C1.43384281,0.860215054 1.40701397,0.887096774 1.40701397,0.887096774 C1.40701397,0.887096774 1.38018514,0.887096774 1.38018514,0.887096774 C1.35335631,0.887096774 1.32652748,0.913978495 1.29969865,0.913978495 L3.09723039,0.0806451613 C3.12405923,0.0806451613 3.15088806,0.0537634409 3.17771689,0.0537634409 C3.17771689,0.0537634409 3.20454572,0.0537634409 3.20454572,0.0537634409 C3.20454572,0.0537634409 3.23137455,0.0537634409 3.23137455,0.0537634409 C3.23137455,0.0537634409 3.25820339,0.0537634409 3.25820339,0.0537634409 C3.25820339,0.0537634409 3.28503222,0.0537634409 3.28503222,0.0537634409 C3.31186105,0.0537634409 3.33868988,0.0268817204 3.36551871,0.0268817204 C3.36551871,0.0268817204 3.36551871,0.0268817204 3.36551871,0.0268817204 C3.39234755,0.0268817204 3.41917638,0 3.44600521,0 C3.44600521,0 3.47283404,0 3.47283404,0 C3.49966287,0 3.49966287,0 3.52649171,0 C3.52649171,0 3.55332054,0 3.55332054,0 C3.55332054,0 3.58014937,0 3.58014937,0 C3.6069782,0 3.63380703,0 3.63380703,0 C3.63380703,0 3.66063587,0 3.66063587,0 C3.6874647,0 3.71429353,0 3.74112236,0 C3.74112236,0 3.76795119,0 3.76795119,0 C3.79478003,0 3.84843769,0 3.87526652,0 L5.88742893,0 C5.91425776,0 5.94108659,0 5.96791542,0 C5.99474425,0 5.99474425,0 6.02157309,0 C6.02157309,0 6.04840192,0 6.04840192,0 C6.07523075,0 6.12888842,0 6.15571725,0 C6.15571725,0 6.15571725,0 6.18254608,0 C6.20937491,0 6.23620374,0 6.28986141,0.0268817204 C6.28986141,0.0268817204 6.31669024,0.0268817204 6.31669024,0.0268817204 C6.34351907,0.0268817204 6.39717674,0.0537634409 6.42400557,0.0537634409 C6.42400557,0.0537634409 6.42400557,0.0537634409 6.4508344,0.0537634409 C6.47766323,0.0537634409 6.50449206,0.0806451613 6.55814973,0.0806451613 C6.55814973,0.0806451613 6.58497856,0.0806451613 6.58497856,0.0806451613 C6.61180739,0.0806451613 6.66546506,0.107526882 6.69229389,0.107526882 C6.69229389,0.107526882 6.69229389,0.107526882 6.71912272,0.107526882 C6.74595155,0.107526882 6.77278038,0.134408602 6.82643805,0.134408602 C6.82643805,0.134408602 6.85326688,0.134408602 6.85326688,0.134408602 C6.88009571,0.161290323 6.93375338,0.161290323 6.96058221,0.188172043 C6.96058221,0.188172043 6.96058221,0.188172043 6.96058221,0.188172043 C6.98741104,0.215053763 7.01423987,0.215053763 7.06789754,0.241935484 C7.06789754,0.241935484 7.09472637,0.241935484 7.09472637,0.268817204 C7.1215552,0.295698925 7.17521287,0.295698925 7.2020417,0.322580645 C7.2020417,0.322580645 7.2020417,0.322580645 7.2020417,0.322580645 C7.22887053,0.349462366 7.25569936,0.349462366 7.28252819,0.376344086 C7.28252819,0.376344086 7.30935703,0.376344086 7.30935703,0.403225806 C7.30935703,0.403225806 7.33618586,0.403225806 7.33618586,0.430107527 C7.36301469,0.430107527 7.36301469,0.456989247 7.38984352,0.456989247 C7.41667235,0.456989247 7.41667235,0.483870968 7.44350119,0.483870968 C7.47033002,0.510752688 7.49715885,0.510752688 7.49715885,0.537634409 C7.52398768,0.537634409 7.52398768,0.564516129 7.55081651,0.564516129 C7.57764535,0.591397849 7.60447418,0.591397849 7.63130301,0.61827957 C7.63130301,0.61827957 7.65813184,0.64516129 7.65813184,0.64516129 C7.68496067,0.672043011 7.71178951,0.698924731 7.73861834,0.725806452 C7.73861834,0.725806452 7.73861834,0.725806452 7.73861834,0.725806452 C7.73861834,0.725806452 7.73861834,0.725806452 7.73861834,0.725806452 C7.76544717,0.752688172 7.792276,0.779569892 7.81910483,0.806451613 C7.81910483,0.806451613 7.84593367,0.833333333 7.84593367,0.833333333 C7.8727625,0.860215054 7.89959133,0.887096774 7.92642016,0.913978495 C7.92642016,0.913978495 7.95324899,0.940860215 7.95324899,0.940860215 C7.98007783,0.967741935 8.00690666,0.994623656 8.03373549,1.02150538 C8.03373549,1.02150538 8.03373549,1.02150538 8.03373549,1.02150538 C8.06056432,1.07526882 8.11422199,1.10215054 8.14105082,1.15591398 C8.14105082,1.15591398 8.16787965,1.1827957 8.16787965,1.1827957 C8.19470848,1.20967742 8.22153732,1.26344086 8.24836615,1.29032258 C8.24836615,1.29032258 8.24836615,1.29032258 8.27519498,1.3172043 C8.27519498,1.3172043 8.27519498,1.34408602 8.30202381,1.34408602 C8.32885264,1.37096774 8.32885264,1.39784946 8.35568148,1.42473118 C8.35568148,1.4516129 8.38251031,1.4516129 8.38251031,1.47849462 C8.40933914,1.50537634 8.40933914,1.53225806 8.43616797,1.58602151 C8.43616797,1.58602151 8.43616797,1.61290323 8.4629968,1.61290323 C8.4629968,1.61290323 8.4629968,1.61290323 8.4629968,1.61290323 C8.48982564,1.66666667 8.51665447,1.72043011 8.5434833,1.74731183 C8.5434833,1.74731183 8.5434833,1.77419355 8.5434833,1.77419355 C8.57031213,1.82795699 8.59714096,1.85483871 8.59714096,1.90860215 C8.59714096,1.90860215 8.59714096,1.90860215 8.59714096,1.93548387 C8.6239698,1.96236559 8.6239698,1.98924731 8.65079863,2.04301075 C8.65079863,2.04301075 8.65079863,2.04301075 8.65079863,2.06989247 C8.67762746,2.09677419 8.67762746,2.15053763 8.70445629,2.17741935 C8.70445629,2.17741935 8.70445629,2.20430108 8.70445629,2.20430108 C8.73128512,2.2311828 8.73128512,2.28494624 8.73128512,2.31182796 C8.73128512,2.31182796 8.73128512,2.31182796 8.73128512,2.31182796 C8.73128512,2.31182796 8.73128512,2.33870968 8.73128512,2.33870968 C8.73128512,2.3655914 8.75811396,2.39247312 8.75811396,2.44623656 C8.75811396,2.47311828 8.75811396,2.47311828 8.75811396,2.5 C8.75811396,2.52688172 8.78494279,2.55376344 8.78494279,2.60752688 C8.78494279,2.60752688 8.78494279,2.6344086 8.78494279,2.6344086 C8.78494279,2.68817204 8.81177162,2.71505376 8.81177162,2.7688172 C8.81177162,2.7688172 8.81177162,2.7688172 8.81177162,2.7688172 C8.81177162,2.82258065 8.83860045,2.87634409 8.83860045,2.93010753 L9.48249242,7.06989247 C9.56297892,7.58064516 9.53615009,8.06451613 9.40200593,8.49462366 C9.34834826,8.65591398 9.2946906,8.8172043 9.2142041,8.9516129 C9.18737527,9.00537634 9.16054644,9.05913978 9.10688877,9.11290323 C9.08005994,9.16666667 9.02640228,9.22043011 8.99957344,9.27419355 C8.97274461,9.32795699 8.91908695,9.38172043 8.86542928,9.40860215 C8.81177162,9.46236559 8.73128512,9.54301075 8.65079863,9.59677419 C8.6239698,9.62365591 8.59714096,9.62365591 8.57031213,9.65053763 C8.4629968,9.7311828 8.35568148,9.78494624 8.24836615,9.83870968 L6.4508344,10.672043 C7.33618586,10.2688172 7.84593367,9.19354839 7.65813184,7.93010753 L7.01423987,3.79032258 C7.01423987,3.73655914 6.98741104,3.6827957 6.98741104,3.62903226 C6.98741104,3.57526882 6.96058221,3.5483871 6.96058221,3.49462366 C6.96058221,3.49462366 6.96058221,3.46774194 6.96058221,3.46774194 C6.96058221,3.44086022 6.93375338,3.41397849 6.93375338,3.36021505 C6.93375338,3.33333333 6.93375338,3.33333333 6.93375338,3.30645161 C6.93375338,3.27956989 6.90692454,3.25268817 6.90692454,3.19892473 C6.90692454,3.19892473 6.90692454,3.17204301 6.90692454,3.17204301 C6.88009571,3.11827957 6.88009571,3.09139785 6.85326688,3.03763441 C6.85326688,3.03763441 6.85326688,3.01075269 6.85326688,3.01075269 C6.82643805,2.98387097 6.82643805,2.93010753 6.79960922,2.90322581 C6.79960922,2.90322581 6.79960922,2.90322581 6.79960922,2.87634409 C6.77278038,2.84946237 6.77278038,2.79569892 6.74595155,2.7688172 C6.71912272,2.71505376 6.69229389,2.68817204 6.69229389,2.6344086 C6.69229389,2.6344086 6.69229389,2.60752688 6.69229389,2.60752688 C6.66546506,2.55376344 6.63863622,2.5 6.61180739,2.47311828 C6.61180739,2.44623656 6.58497856,2.44623656 6.58497856,2.41935484 C6.55814973,2.39247312 6.55814973,2.3655914 6.5313209,2.31182796 C6.5313209,2.28494624 6.50449206,2.28494624 6.50449206,2.25806452 C6.47766323,2.2311828 6.47766323,2.20430108 6.4508344,2.17741935 C6.4508344,2.15053763 6.42400557,2.15053763 6.42400557,2.12365591 C6.39717674,2.09677419 6.3703479,2.04301075 6.34351907,2.01612903 C6.34351907,2.01612903 6.31669024,1.98924731 6.31669024,1.98924731 C6.28986141,1.93548387 6.23620374,1.90860215 6.20937491,1.85483871 C6.18254608,1.82795699 6.15571725,1.80107527 6.12888842,1.77419355 C6.12888842,1.77419355 6.10205958,1.74731183 6.10205958,1.74731183 C6.07523075,1.72043011 6.04840192,1.69354839 6.02157309,1.66666667 C6.02157309,1.66666667 5.99474425,1.63978495 5.99474425,1.63978495 C5.96791542,1.61290323 5.94108659,1.58602151 5.91425776,1.55913978 C5.91425776,1.55913978 5.91425776,1.55913978 5.91425776,1.55913978 C5.88742893,1.53225806 5.86060009,1.50537634 5.83377126,1.47849462 C5.83377126,1.47849462 5.80694243,1.4516129 5.80694243,1.4516129 C5.7801136,1.42473118 5.75328477,1.42473118 5.72645593,1.39784946 C5.6996271,1.39784946 5.6996271,1.37096774 5.67279827,1.37096774 C5.64596944,1.34408602 5.61914061,1.34408602 5.61914061,1.3172043 C5.59231177,1.3172043 5.59231177,1.29032258 5.56548294,1.29032258 C5.53865411,1.26344086 5.51182528,1.26344086 5.51182528,1.23655914 C5.51182528,1.23655914 5.48499645,1.23655914 5.48499645,1.20967742 C5.45816761,1.1827957 5.43133878,1.1827957 5.40450995,1.15591398 C5.40450995,1.15591398 5.40450995,1.15591398 5.40450995,1.15591398 C5.37768112,1.12903226 5.32402345,1.12903226 5.29719462,1.10215054 C5.29719462,1.10215054 5.27036579,1.10215054 5.27036579,1.07526882 C5.24353696,1.0483871 5.21670813,1.0483871 5.16305046,1.02150538 C5.16305046,1.02150538 5.16305046,1.02150538 5.16305046,1.02150538 C5.13622163,0.994623656 5.08256397,0.994623656 5.05573513,0.967741935 C5.05573513,0.967741935 5.0289063,0.967741935 5.0289063,0.967741935 C5.00207747,0.967741935 4.97524864,0.940860215 4.92159097,0.940860215 C4.92159097,0.940860215 4.92159097,0.940860215 4.89476214,0.940860215 C4.86793331,0.940860215 4.81427564,0.913978495 4.78744681,0.913978495 C4.78744681,0.913978495 4.76061798,0.913978495 4.76061798,0.913978495 C4.73378915,0.913978495 4.70696032,0.887096774 4.65330265,0.887096774 C4.65330265,0.887096774 4.65330265,0.887096774 4.62647382,0.887096774 C4.59964499,0.887096774 4.54598732,0.860215054 4.51915849,0.860215054 C4.51915849,0.860215054 4.49232966,0.860215054 4.49232966,0.860215054 C4.46550083,0.860215054 4.438672,0.860215054 4.38501433,0.833333333 C4.38501433,0.833333333 4.38501433,0.833333333 4.3581855,0.833333333 C4.33135667,0.833333333 4.277699,0.833333333 4.25087017,0.833333333 C4.25087017,0.833333333 4.22404134,0.833333333 4.22404134,0.833333333 C4.19721251,0.833333333 4.14355484,0.833333333 4.11672601,0.833333333 L2.10456361,0.833333333 C2.07773478,0.833333333 2.02407711,0.833333333 1.99724828,0.833333333 C1.97041945,0.806451613 1.97041945,0.806451613 1.94359062,0.806451613 Z" fill="#EDF5F7"></path>
                    </g>
                    <g transform="translate(0.736293, 0.000000)" id="Path">
                        <path d="M7.08281166,1.47849462 L7.08281166,1.55913978 C7.05598283,1.55913978 7.00232517,1.53225806 6.97549633,1.53225806 C6.97549633,1.53225806 6.9486675,1.53225806 6.9486675,1.53225806 C6.92183867,1.53225806 6.86818101,1.50537634 6.84135217,1.50537634 C6.81452334,1.50537634 6.81452334,1.50537634 6.78769451,1.50537634 C6.76086568,1.50537634 6.73403684,1.50537634 6.68037918,1.50537634 C6.65355035,1.50537634 6.65355035,1.50537634 6.62672152,1.50537634 C6.59989268,1.50537634 6.54623502,1.50537634 6.51940619,1.50537634 C6.49257736,1.50537634 6.49257736,1.50537634 6.46574852,1.50537634 C6.41209086,1.50537634 6.3584332,1.50537634 6.30477553,1.50537634 L7.08281166,1.50537634 L7.08281166,1.47849462 Z" fill="#3E4546"></path>
                        <path d="M0.0268288321,9.43548387 C0.0268288321,9.40860215 0.0268288321,9.38172043 0.0268288321,9.35483871 C0.0268288321,9.30107527 0.0268288321,9.27419355 0.0268288321,9.22043011 C0.0268288321,9.22043011 0.0268288321,9.19354839 0.0268288321,9.19354839 C0.0268288321,9.11290323 0.0268288321,9.05913978 0.0268288321,8.97849462 C0.0268288321,8.9516129 0.0268288321,8.9516129 0.0268288321,8.92473118 C0.0268288321,8.84408602 0.0268288321,8.76344086 0.0536576641,8.65591398 C0.0536576641,8.62903226 0.0536576641,8.60215054 0.0536576641,8.57526882 C0.0536576641,8.52150538 0.0536576641,8.44086022 0.0804864962,8.38709677 C0.0804864962,8.36021505 0.0804864962,8.33333333 0.0804864962,8.27956989 C0.0804864962,8.22580645 0.0804864962,8.17204301 0.107315328,8.11827957 C0.107315328,8.09139785 0.107315328,8.09139785 0.107315328,8.06451613 C0.107315328,8.03763441 0.107315328,8.01075269 0.107315328,7.98387097 C0.107315328,7.95698925 0.107315328,7.93010753 0.107315328,7.90322581 C0.107315328,7.84946237 0.107315328,7.79569892 0.13414416,7.7688172 C0.13414416,7.74193548 0.13414416,7.71505376 0.13414416,7.68817204 C0.13414416,7.6344086 0.160972992,7.55376344 0.160972992,7.5 C0.160972992,7.5 0.160972992,7.47311828 0.160972992,7.47311828 C0.160972992,7.39247312 0.187801824,7.33870968 0.187801824,7.25806452 C0.187801824,7.2311828 0.187801824,7.20430108 0.187801824,7.20430108 C0.187801824,7.15053763 0.214630656,7.09677419 0.214630656,7.04301075 C0.214630656,7.01612903 0.214630656,6.98924731 0.241459488,6.96236559 C0.241459488,6.90860215 0.268288321,6.88172043 0.268288321,6.82795699 C0.268288321,6.80107527 0.268288321,6.77419355 0.295117153,6.74731183 C0.295117153,6.69354839 0.321945985,6.66666667 0.321945985,6.61290323 C0.321945985,6.58602151 0.321945985,6.55913978 0.348774817,6.53225806 C0.348774817,6.50537634 0.348774817,6.50537634 0.348774817,6.47849462 C0.348774817,6.4516129 0.348774817,6.4516129 0.348774817,6.4516129 C0.375603649,6.37096774 0.402432481,6.26344086 0.402432481,6.1827957 C0.402432481,6.1827957 0.402432481,6.15591398 0.402432481,6.15591398 C0.429261313,6.0483871 0.456090145,5.96774194 0.482918977,5.86021505 C0.482918977,5.83333333 0.482918977,5.80645161 0.509747809,5.77956989 C0.536576641,5.67204301 0.563405473,5.59139785 0.590234305,5.48387097 C0.590234305,5.48387097 0.590234305,5.48387097 0.590234305,5.48387097 C0.617063137,5.37634409 0.643891969,5.29569892 0.670720801,5.18817204 C0.670720801,5.16129032 0.697549633,5.1344086 0.697549633,5.1344086 C0.724378465,5.02688172 0.751207297,4.94623656 0.804864962,4.8655914 C0.804864962,4.8655914 0.804864962,4.83870968 0.804864962,4.83870968 C0.831693794,4.75806452 0.858522626,4.67741935 0.91218029,4.56989247 C0.91218029,4.54301075 0.939009122,4.51612903 0.939009122,4.51612903 C0.965837954,4.43548387 1.01949562,4.32795699 1.04632445,4.24731183 C1.04632445,4.22043011 1.04632445,4.22043011 1.07315328,4.19354839 C1.09998211,4.11290323 1.15363978,4.03225806 1.18046861,3.9516129 C1.18046861,3.9516129 1.18046861,3.92473118 1.20729744,3.92473118 C1.20729744,3.92473118 1.20729744,3.89784946 1.20729744,3.89784946 C1.23412627,3.8172043 1.28778394,3.73655914 1.31461277,3.65591398 C1.31461277,3.62903226 1.3414416,3.62903226 1.3414416,3.60215054 C1.36827043,3.52150538 1.4219281,3.46774194 1.44875693,3.38709677 C1.44875693,3.36021505 1.47558576,3.36021505 1.47558576,3.33333333 C1.52924343,3.25268817 1.55607226,3.17204301 1.60972992,3.09139785 C1.60972992,3.06451613 1.63655876,3.06451613 1.63655876,3.03763441 C1.66338759,2.98387097 1.71704525,2.90322581 1.74387408,2.84946237 C1.74387408,2.84946237 1.74387408,2.82258065 1.77070292,2.82258065 C1.77070292,2.79569892 1.79753175,2.79569892 1.79753175,2.7688172 C1.82436058,2.71505376 1.87801824,2.66129032 1.90484708,2.60752688 C1.90484708,2.58064516 1.93167591,2.58064516 1.93167591,2.55376344 C1.95850474,2.52688172 1.98533357,2.47311828 2.0121624,2.44623656 C2.0121624,2.41935484 2.03899124,2.41935484 2.03899124,2.39247312 C2.06582007,2.3655914 2.0926489,2.33870968 2.11947773,2.28494624 C2.14630656,2.25806452 2.14630656,2.25806452 2.1731354,2.2311828 C2.1731354,2.2311828 2.19996423,2.20430108 2.19996423,2.20430108 C2.22679306,2.17741935 2.25362189,2.15053763 2.28045072,2.12365591 C2.28045072,2.12365591 2.28045072,2.12365591 2.28045072,2.09677419 C2.30727956,2.04301075 2.36093722,2.01612903 2.38776605,1.96236559 C2.38776605,1.96236559 2.41459488,1.93548387 2.41459488,1.93548387 C2.44142372,1.90860215 2.46825255,1.85483871 2.49508138,1.82795699 C2.49508138,1.82795699 2.52191021,1.80107527 2.52191021,1.80107527 C2.52191021,1.80107527 2.52191021,1.80107527 2.54873904,1.77419355 C2.54873904,1.77419355 2.57556788,1.74731183 2.57556788,1.74731183 C2.60239671,1.72043011 2.65605437,1.66666667 2.68288321,1.63978495 C2.70971204,1.61290323 2.70971204,1.61290323 2.73654087,1.58602151 C2.7633697,1.55913978 2.79019853,1.50537634 2.8438562,1.47849462 C2.8438562,1.47849462 2.87068503,1.4516129 2.87068503,1.4516129 C2.87068503,1.4516129 2.87068503,1.4516129 2.89751386,1.42473118 C2.92434269,1.39784946 2.95117153,1.37096774 2.97800036,1.34408602 C3.00482919,1.3172043 3.00482919,1.3172043 3.03165802,1.29032258 C3.05848685,1.26344086 3.08531569,1.23655914 3.13897335,1.20967742 C3.13897335,1.20967742 3.16580218,1.1827957 3.16580218,1.1827957 C3.16580218,1.1827957 3.16580218,1.1827957 3.16580218,1.1827957 C3.19263101,1.15591398 3.21945985,1.12903226 3.24628868,1.12903226 C3.27311751,1.10215054 3.29994634,1.10215054 3.29994634,1.07526882 C3.32677517,1.0483871 3.35360401,1.02150538 3.38043284,1.02150538 C3.40726167,0.994623656 3.40726167,0.994623656 3.4340905,0.967741935 C3.4340905,0.967741935 3.4340905,0.967741935 3.4340905,0.967741935 C3.46091933,0.940860215 3.46091933,0.940860215 3.48774817,0.940860215 C3.514577,0.913978495 3.54140583,0.887096774 3.56823466,0.887096774 C3.59506349,0.860215054 3.59506349,0.860215054 3.62189233,0.833333333 C3.64872116,0.806451613 3.67554999,0.806451613 3.70237882,0.779569892 C3.70237882,0.779569892 3.70237882,0.779569892 3.70237882,0.779569892 C3.72920766,0.779569892 3.72920766,0.752688172 3.75603649,0.752688172 C3.78286532,0.725806452 3.80969415,0.725806452 3.83652298,0.698924731 C3.86335182,0.698924731 3.86335182,0.672043011 3.89018065,0.672043011 C3.91700948,0.672043011 3.91700948,0.64516129 3.94383831,0.64516129 C3.94383831,0.64516129 3.97066714,0.64516129 3.97066714,0.61827957 C3.99749598,0.61827957 3.99749598,0.591397849 4.02432481,0.591397849 C4.05115364,0.564516129 4.07798247,0.564516129 4.1048113,0.537634409 C4.13164014,0.537634409 4.13164014,0.510752688 4.15846897,0.510752688 C4.15846897,0.510752688 4.1852978,0.510752688 4.1852978,0.483870968 C4.21212663,0.483870968 4.21212663,0.456989247 4.23895546,0.456989247 C4.2657843,0.456989247 4.2657843,0.430107527 4.29261313,0.430107527 C4.31944196,0.403225806 4.34627079,0.403225806 4.37309962,0.376344086 C4.39992846,0.376344086 4.39992846,0.349462366 4.42675729,0.349462366 C4.42675729,0.349462366 4.42675729,0.349462366 4.45358612,0.349462366 C4.48041495,0.322580645 4.53407262,0.322580645 4.56090145,0.295698925 C4.56090145,0.295698925 4.58773028,0.295698925 4.58773028,0.295698925 C4.64138794,0.268817204 4.66821678,0.268817204 4.72187444,0.241935484 C4.72187444,0.241935484 4.72187444,0.241935484 4.72187444,0.241935484 C4.74870327,0.241935484 4.74870327,0.241935484 4.77553211,0.215053763 C4.80236094,0.215053763 4.8560186,0.188172043 4.88284743,0.188172043 C4.90967627,0.188172043 4.90967627,0.188172043 4.9365051,0.161290323 C4.96333393,0.161290323 4.99016276,0.134408602 4.99016276,0.134408602 C4.99016276,0.134408602 5.01699159,0.134408602 5.01699159,0.134408602 C5.04382043,0.134408602 5.07064926,0.134408602 5.07064926,0.107526882 C5.09747809,0.107526882 5.12430692,0.0806451613 5.15113575,0.0806451613 C5.17796459,0.0806451613 5.20479342,0.0806451613 5.20479342,0.0537634409 C5.20479342,0.0537634409 5.23162225,0.0537634409 5.23162225,0.0537634409 C5.25845108,0.0537634409 5.25845108,0.0537634409 5.28527991,0.0537634409 C5.31210875,0.0537634409 5.33893758,0.0537634409 5.36576641,0.0268817204 C5.39259524,0.0268817204 5.41942407,0.0268817204 5.44625291,0 C5.47308174,0 5.49991057,0 5.49991057,0 C5.49991057,0 5.5267394,0 5.5267394,0 C5.55356823,0 5.55356823,0 5.58039707,0 C5.6072259,0 5.63405473,0 5.66088356,0 C5.68771239,0 5.71454123,0 5.74137006,0 C5.76819889,0 5.79502772,0 5.82185656,0 C5.82185656,0 5.84868539,0 5.84868539,0 C5.87551422,0 5.87551422,0 5.90234305,0 C5.92917188,0 5.95600072,0 6.00965838,0 C6.03648721,0 6.06331604,0 6.09014488,0 C6.11697371,0 6.14380254,0 6.1974602,0 C6.1974602,0 6.22428904,0 6.22428904,0 C6.25111787,0 6.2779467,0 6.30477553,0 L7.05598283,0 L7.6998748,0.241935484 C7.6998748,0.241935484 7.029154,0.672043011 7.029154,0.698924731 C7.00232517,0.725806452 6.97549633,0.725806452 6.9486675,0.752688172 C6.92183867,0.752688172 6.92183867,0.779569892 6.89500984,0.779569892 C6.86818101,0.806451613 6.84135217,0.806451613 6.81452334,0.833333333 C6.78769451,0.833333333 6.78769451,0.860215054 6.76086568,0.860215054 C6.73403684,0.887096774 6.70720801,0.887096774 6.68037918,0.913978495 C6.65355035,0.940860215 6.65355035,0.940860215 6.62672152,0.967741935 C6.59989268,0.994623656 6.57306385,1.02150538 6.54623502,1.02150538 C6.51940619,1.02150538 6.51940619,1.0483871 6.49257736,1.0483871 C6.46574852,1.07526882 6.43891969,1.07526882 6.43891969,1.10215054 C6.41209086,1.12903226 6.38526203,1.15591398 6.3584332,1.15591398 C6.33160436,1.1827957 6.30477553,1.1827957 6.30477553,1.20967742 C6.2779467,1.23655914 6.25111787,1.26344086 6.22428904,1.26344086 C6.1974602,1.29032258 6.1974602,1.29032258 6.17063137,1.3172043 C6.14380254,1.34408602 6.11697371,1.37096774 6.06331604,1.39784946 C6.03648721,1.42473118 6.03648721,1.42473118 6.00965838,1.4516129 C5.98282955,1.47849462 5.95600072,1.50537634 5.92917188,1.53225806 C5.90234305,1.55913978 5.90234305,1.55913978 5.87551422,1.58602151 C5.84868539,1.61290323 5.82185656,1.66666667 5.76819889,1.69354839 C5.74137006,1.72043011 5.74137006,1.72043011 5.71454123,1.74731183 C5.68771239,1.77419355 5.63405473,1.82795699 5.6072259,1.85483871 C5.58039707,1.88172043 5.58039707,1.88172043 5.55356823,1.90860215 C5.55356823,1.90860215 5.5267394,1.93548387 5.5267394,1.93548387 C5.49991057,1.96236559 5.47308174,2.01612903 5.44625291,2.04301075 C5.44625291,2.04301075 5.41942407,2.06989247 5.41942407,2.06989247 C5.39259524,2.12365591 5.33893758,2.15053763 5.31210875,2.20430108 C5.31210875,2.20430108 5.31210875,2.20430108 5.31210875,2.2311828 C5.28527991,2.28494624 5.25845108,2.31182796 5.23162225,2.3655914 C5.20479342,2.39247312 5.20479342,2.39247312 5.17796459,2.41935484 C5.15113575,2.44623656 5.12430692,2.47311828 5.09747809,2.52688172 C5.09747809,2.55376344 5.07064926,2.55376344 5.07064926,2.58064516 C5.04382043,2.60752688 5.01699159,2.66129032 4.99016276,2.68817204 C4.99016276,2.71505376 4.96333393,2.71505376 4.96333393,2.74193548 C4.9365051,2.79569892 4.88284743,2.84946237 4.8560186,2.90322581 C4.82918977,2.93010753 4.82918977,2.95698925 4.80236094,2.98387097 C4.74870327,3.03763441 4.72187444,3.11827957 4.69504561,3.17204301 C4.69504561,3.19892473 4.66821678,3.19892473 4.66821678,3.22580645 C4.61455911,3.30645161 4.58773028,3.38709677 4.53407262,3.46774194 C4.53407262,3.49462366 4.50724378,3.49462366 4.50724378,3.52150538 C4.48041495,3.60215054 4.42675729,3.65591398 4.39992846,3.73655914 C4.39992846,3.76344086 4.37309962,3.76344086 4.37309962,3.79032258 C4.31944196,3.87096774 4.29261313,3.9516129 4.2657843,4.03225806 C4.2657843,4.05913978 4.23895546,4.05913978 4.23895546,4.08602151 C4.21212663,4.16666667 4.15846897,4.24731183 4.13164014,4.32795699 C4.13164014,4.35483871 4.13164014,4.35483871 4.1048113,4.38172043 C4.07798247,4.46236559 4.02432481,4.56989247 3.99749598,4.65053763 C3.99749598,4.67741935 3.97066714,4.70430108 3.97066714,4.70430108 C3.94383831,4.78494624 3.91700948,4.8655914 3.86335182,4.97311828 C3.86335182,4.97311828 3.86335182,5 3.86335182,5 C3.83652298,5.08064516 3.80969415,5.18817204 3.75603649,5.2688172 C3.75603649,5.29569892 3.72920766,5.32258065 3.72920766,5.34946237 C3.70237882,5.45698925 3.67554999,5.53763441 3.64872116,5.64516129 C3.64872116,5.64516129 3.64872116,5.64516129 3.64872116,5.64516129 C3.62189233,5.75268817 3.59506349,5.83333333 3.56823466,5.94086022 C3.56823466,5.96774194 3.56823466,5.99462366 3.54140583,6.02150538 C3.514577,6.12903226 3.48774817,6.20967742 3.46091933,6.3172043 C3.46091933,6.3172043 3.46091933,6.34408602 3.46091933,6.34408602 C3.4340905,6.42473118 3.40726167,6.53225806 3.40726167,6.61290323 C3.40726167,6.63978495 3.40726167,6.66666667 3.38043284,6.69354839 C3.38043284,6.72043011 3.38043284,6.74731183 3.35360401,6.77419355 C3.35360401,6.82795699 3.32677517,6.85483871 3.32677517,6.90860215 C3.32677517,6.93548387 3.32677517,6.96236559 3.29994634,6.98924731 C3.29994634,7.04301075 3.27311751,7.06989247 3.27311751,7.12365591 C3.27311751,7.15053763 3.27311751,7.17741935 3.24628868,7.20430108 C3.24628868,7.25806452 3.21945985,7.31182796 3.21945985,7.3655914 C3.21945985,7.39247312 3.21945985,7.41935484 3.21945985,7.41935484 C3.21945985,7.5 3.19263101,7.55376344 3.19263101,7.6344086 C3.19263101,7.6344086 3.19263101,7.66129032 3.19263101,7.66129032 C3.19263101,7.71505376 3.16580218,7.79569892 3.16580218,7.84946237 C3.16580218,7.87634409 3.16580218,7.90322581 3.16580218,7.93010753 C3.16580218,7.98387097 3.16580218,8.03763441 3.13897335,8.06451613 C3.13897335,8.09139785 3.13897335,8.11827957 3.13897335,8.14516129 C3.13897335,8.19892473 3.13897335,8.22580645 3.13897335,8.27956989 C3.13897335,8.33333333 3.13897335,8.38709677 3.11214452,8.44086022 C3.11214452,8.46774194 3.11214452,8.49462366 3.11214452,8.5483871 C3.11214452,8.60215054 3.11214452,8.6827957 3.08531569,8.73655914 C3.08531569,8.76344086 3.08531569,8.79032258 3.08531569,8.8172043 C3.08531569,8.89784946 3.08531569,8.97849462 3.05848685,9.08602151 C3.05848685,9.11290323 3.05848685,9.11290323 3.05848685,9.13978495 C3.05848685,9.22043011 3.05848685,9.27419355 3.05848685,9.35483871 C3.05848685,9.40860215 3.05848685,9.46236559 3.05848685,9.51612903 C3.05848685,9.54301075 3.05848685,9.56989247 3.05848685,9.59677419 C3.05848685,9.67741935 3.05848685,9.75806452 3.05848685,9.81182796 C3.05848685,9.89247312 3.05848685,9.97311828 3.05848685,10.0537634 C3.05848685,10.0806452 3.05848685,10.1075269 3.05848685,10.1344086 C3.05848685,10.188172 3.05848685,10.2419355 3.05848685,10.2956989 C3.05848685,10.3763441 3.05848685,10.4301075 3.05848685,10.5107527 C3.05848685,10.5376344 3.05848685,10.5376344 3.05848685,10.5645161 C3.05848685,10.6182796 3.05848685,10.672043 3.05848685,10.7258065 C3.05848685,10.7526882 3.05848685,10.7795699 3.05848685,10.8064516 C3.05848685,10.8602151 3.05848685,10.8870968 3.05848685,10.9408602 C3.05848685,10.9677419 3.05848685,10.9946237 3.05848685,11.0215054 C3.05848685,11.0752688 3.05848685,11.1290323 3.05848685,11.155914 C3.05848685,11.1827957 3.05848685,11.2096774 3.05848685,11.2096774 C3.05848685,11.2096774 3.05848685,11.2365591 3.05848685,11.2365591 L1.26095511,11.2365591 C0.804864962,11.2365591 0.375603649,11.3978495 0.0536576641,11.6666667 C0.0536576641,11.6666667 0.0536576641,11.6397849 0.0536576641,11.6397849 C0.0536576641,11.5860215 0.0268288321,11.5053763 0.0268288321,11.4516129 C0.0268288321,11.4516129 0.0268288321,11.4516129 0.0268288321,11.4516129 C0.0268288321,11.3709677 0,11.3172043 0,11.2365591 C0,11.2096774 0,11.1827957 0,11.1827957 C0,11.155914 0,11.1290323 0,11.1021505 C0,11.0752688 0,11.0483871 0,11.0483871 C0,11.0215054 0,10.9946237 0,10.9677419 C0,10.9139785 0,10.8870968 0,10.8333333 C0,10.8064516 0,10.7795699 0,10.7526882 C0,10.6989247 0,10.6451613 0,10.5913978 C0,10.5645161 0,10.5645161 0,10.5376344 C0,10.4569892 0,10.4032258 0,10.3225806 C0,10.3225806 0,10.3225806 0,10.3225806 C0,10.2688172 0,10.2150538 0,10.1612903 C0,10.1344086 0,10.1075269 0,10.0806452 C0,10 0,9.91935484 0,9.83870968 C0.0268288321,9.59677419 0.0268288321,9.51612903 0.0268288321,9.43548387 Z" fill="#3E4546"></path>
                        <path d="M4.8560186,2.87634409 C5.49991057,1.88172043 6.78769451,0.672043011 7.6193883,0.161290323 L8.69254158,0.591397849 C7.05598283,1.96236559 4.31944196,6.47849462 4.31944196,9.67741935 C4.31944196,10.2688172 4.34627079,10.8602151 4.42675729,11.4247312 C4.1048113,11.2634409 3.72920766,11.1827957 3.38043284,11.1827957 L3.13897335,11.1827957 C3.08531569,10.6989247 3.05848685,10.2150538 3.05848685,9.70430108 C3.05848685,7.09677419 3.70237882,4.70430108 4.8560186,2.87634409 Z" fill="#EDF5F7"></path>
                    </g>
                    <path d="M1.83627529,9.67741935 C1.83627529,6.96236559 2.50699609,4.48924731 3.6874647,2.66129032 C4.33135667,1.69354839 5.29719462,0.752688172 6.47766323,0 C6.50449206,0 6.50449206,0 6.5313209,0 C6.55814973,0 6.58497856,0 6.61180739,0 C6.61180739,0 6.63863622,0 6.63863622,0 C6.66546506,0 6.66546506,0 6.69229389,0 C6.71912272,0 6.74595155,0 6.79960922,0 C6.82643805,0 6.85326688,0 6.88009571,0 C6.90692454,0 6.93375338,0 6.98741104,0 C6.98741104,0 7.01423987,0 7.01423987,0 C7.0410687,0 7.06789754,0 7.09472637,0 L7.17521287,0 L7.81910483,0 L8.08739315,0 C7.8727625,0.107526882 7.65813184,0.215053763 7.44350119,0.349462366 C6.12888842,1.10215054 5.00207747,2.09677419 4.33135667,3.14516129 C3.20454572,4.83870968 2.58748258,7.17741935 2.58748258,9.7311828 C2.58748258,10.2150538 2.61431142,10.6989247 2.66796908,11.1827957 L2.29236543,11.2096774 L2.07773478,11.2096774 C2.02407711,11.2096774 1.97041945,11.2096774 1.88993295,11.2096774 C1.86310412,10.672043 1.83627529,10.1612903 1.83627529,9.67741935 Z" id="Path" fill="#90A6B4"></path>
                    <path d="M2.02407711,16.2096774 C1.94359062,15.7258065 2.07773478,15.2419355 2.3460231,14.9193548 C2.58748258,14.6505376 2.90942857,14.4892473 3.28503222,14.4892473 C4.08989718,14.4892473 4.81427564,15.188172 4.9484198,16.1021505 C5.0289063,16.5860215 4.89476214,17.0698925 4.62647382,17.3924731 C4.38501433,17.6612903 4.06306835,17.8225806 3.6874647,17.8225806 C2.88259974,17.8225806 2.15822127,17.1236559 2.02407711,16.2096774 Z M2.90942857,15.4032258 C2.77528441,15.5645161 2.72162674,15.8064516 2.74845558,16.0752688 C2.82894207,16.5860215 3.25820339,17.0430108 3.66063587,17.0430108 C3.79478003,17.0430108 3.92892419,16.9892473 4.03623952,16.8817204 C4.17038368,16.7204301 4.22404134,16.4784946 4.19721251,16.2096774 C4.11672601,15.6989247 3.6874647,15.2419355 3.28503222,15.2419355 C3.15088806,15.2419355 3.0167439,15.2956989 2.90942857,15.4032258 Z" id="Shape" fill="#90A6B4"></path>
                </g>
                <path d="M76.4353425,70.2956989 L76.515829,70.483871 C77.2133786,72.1774194 78.6621356,73.4677419 80.4328385,73.9516129 L81.2645323,74.1666667" id="Path" stroke="#3E4546" stroke-width="0.537634409"></path>
                <ellipse id="Oval" fill="#3E4546" fill-rule="nonzero" cx="81.4255053" cy="73.9247312" rx="1.20729744" ry="1"></ellipse>
                <g id="Group" transform="translate(0.000000, 116.370968)" fill="#FF8843" fill-rule="nonzero">
                    <polygon id="Path" points="53.9259524 0 80.1377213 0 143.587909 0 143.587909 6.12903226 140.046503 6.12903226 81.5596494 6.12903226 39.8139868 6.12903226 18.6728671 6.12903226 14.2997675 6.12903226 14.2997675 0.0268817204 14.2997675 0 38.4188875 0"></polygon>
                    <path d="M140.046503,17.7956989 L140.046503,67.7688172 L133.983187,67.7688172 L133.339295,18.1451613 C133.339295,18.1451613 129.475943,18.1451613 123.197997,18.1182796 L123.197997,17.7956989 L115.793239,17.7956989 L26.0776248,17.7956989 L25.406904,67.7688172 L18.6996959,67.7688172 C18.6996959,67.7688172 18.6996959,35.7795699 18.6996959,17.7956989 L18.6996959,16.8817204 L18.6996959,5.88709677 L39.8408156,5.88709677 L81.5596494,5.88709677 L140.046503,5.88709677 L140.046503,17.7956989 Z" id="Path"></path>
                    <path d="M123.197997,17.6612903 L122.527276,67.311828 L115.793239,67.311828 C115.793239,67.311828 115.793239,35.672043 115.793239,17.6344086 C118.502951,17.6612903 120.998033,17.6612903 123.197997,17.6612903 Z" id="Path"></path>
                    <path d="M18.6728671,16.8817204 L18.6728671,17.7956989 L9.68520837,17.7956989 L9.01448757,67.7688172 L2.30727956,67.7688172 C2.30727956,67.7688172 2.30727956,35.7795699 2.30727956,17.7956989 L2.41459488,17.7956989 L2.41459488,5.88709677 L14.3265963,5.88709677 L18.6996959,5.88709677 L18.6996959,16.8817204 L18.6728671,16.8817204 Z" id="Path"></path>
                    <polygon id="Path" points="14.2997675 0.0268817204 14.2997675 6.12903226 2.38776605 6.12903226 0 6.12903226 0 0.0268817204"></polygon>
                    <polygon id="Path" points="53.9259524 0 80.1377213 0 143.587909 0 143.587909 6.12903226 140.046503 6.12903226 81.5596494 6.12903226 39.8139868 6.12903226 18.6728671 6.12903226 14.2997675 6.12903226 14.2997675 0.0268817204 14.2997675 0 38.4188875 0"></polygon>
                    <path d="M140.046503,17.7956989 L140.046503,67.7688172 L133.983187,67.7688172 L133.339295,18.1451613 C133.339295,18.1451613 129.475943,18.1451613 123.197997,18.1182796 L123.197997,17.7956989 L115.793239,17.7956989 L26.0776248,17.7956989 L25.406904,67.7688172 L18.6996959,67.7688172 C18.6996959,67.7688172 18.6996959,35.7795699 18.6996959,17.7956989 L18.6996959,16.8817204 L18.6996959,5.88709677 L39.8408156,5.88709677 L81.5596494,5.88709677 L140.046503,5.88709677 L140.046503,17.7956989 Z" id="Path" opacity="0.5"></path>
                </g>
                <g id="Group" transform="translate(77.213379, 73.924731)">
                    <polygon id="Path" fill="#808281" points="25.0044715 32.8763441 35.0116258 32.8763441 39.6798426 42.7419355 20.3362547 42.7419355"></polygon>
                    <path d="M6.49257736,0 L53.5503488,0 C54.8649615,0 55.9649437,1.26344086 55.9649437,2.79569892 L55.9649437,32.5806452 C55.9649437,34.1129032 54.8917904,35.3763441 53.5503488,35.3763441 L6.49257736,35.3763441 C5.17796459,35.3763441 4.07798247,34.1129032 4.07798247,32.5806452 L4.07798247,2.79569892 C4.07798247,1.26344086 5.15113575,0 6.49257736,0 Z" id="Path" fill="#4E5151"></path>
                    <path d="M1.28778394,39.7580645 L58.7283134,39.7580645 C59.425863,39.7580645 60.0160973,40.4301075 60.0160973,41.2365591 L60.0160973,41.2365591 C60.0160973,42.0430108 59.4526918,42.7150538 58.7283134,42.7150538 L1.28778394,42.7150538 C0.590234305,42.7150538 0,42.0430108 0,41.2365591 L0,41.2365591 C0,40.4301075 0.590234305,39.7580645 1.28778394,39.7580645 Z" id="Path" fill="#595959"></path>
                    <path d="M60.6868181,2.66129032 L60.6868181,2.66129032 C60.8209623,2.66129032 60.9014488,2.7688172 60.9014488,2.93010753 L60.9014488,4.75806452 C60.9014488,4.89247312 60.7941334,5.02688172 60.6868181,5.02688172 L60.6868181,5.02688172 C60.5526739,5.02688172 60.4721874,4.91935484 60.4721874,4.75806452 L60.4721874,2.93010753 C60.4721874,2.7688172 60.5795028,2.66129032 60.6868181,2.66129032 Z" id="Path" fill="#E2E2E2"></path>
                    <path d="M21.0338043,39.7580645 L58.7283134,39.7580645 C59.425863,39.7580645 60.0160973,40.4301075 60.0160973,41.2365591 L60.0160973,41.2365591 C60.0160973,42.0430108 59.4526918,42.7150538 58.7283134,42.7150538 L21.3020926,42.7150538 L21.0338043,39.7580645 Z" id="Path" fill="#595959"></path>
                </g>
                <polygon id="Path" fill="#2A94F4" fill-rule="nonzero" points="136.639242 83.172043 142.568414 84.6774194 150 73.5215054 144.95618 71.344086 142.326954 82.1505376 138.195314 78.6827957"></polygon>
            </g>
        </g>
    </g>
</svg>