<?xml version="1.0" encoding="UTF-8"?>
<svg width="187px" height="160px" viewBox="0 0 187 160" version="1.1" xmlns="http://www.w3.org/2000/svg" xmlns:xlink="http://www.w3.org/1999/xlink">
    <title>Messages-Illustration</title>
    <g id="Android-App---AV-Revisions" stroke="none" stroke-width="1" fill="none" fill-rule="evenodd">
        <g id="6-Session-Messages_Empty" transform="translate(-87.000000, -195.000000)" fill-rule="nonzero">
            <g id="Group-10" transform="translate(20.000000, 104.000000)">
                <g id="Messages-Illustration" transform="translate(67.000000, 91.000000)">
                    <polygon id="Path" fill="#E6E6E6" points="15.3883785 38.1928217 102.442094 38.1928217 102.442094 66.7275645 99.1445841 66.7275645 99.1445841 74.1904211 91.6703639 66.7275645 15.3883785 66.7275645"></polygon>
                    <rect id="Rectangle" fill="#FFFFFF" x="17.8064577" y="40.9715236" width="82.2174713" height="22.8278527"></rect>
                    <rect id="Rectangle" fill="#FF8843" x="24.4180029" y="47.6362612" width="39.5856041" height="1.19949735"></rect>
                    <rect id="Rectangle" fill="#E6E6E6" x="24.4180029" y="51.7857035" width="68.9943854" height="1.19949735"></rect>
                    <rect id="Rectangle" fill="#E6E6E6" x="24.4180029" y="55.9351457" width="68.9268232" height="1.19949735"></rect>
                    <polygon id="Path" fill="#E6E6E6" points="87.0537153 76.3854187 0 76.3854187 0 104.920386 3.29750968 104.920386 3.29750968 112.383243 10.7717299 104.920386 87.0537153 104.920386"></polygon>
                    <rect id="Rectangle" fill="#FFFFFF" x="2.41816026" y="79.1642824" width="82.2174691" height="22.8278549"></rect>
                    <rect id="Rectangle" fill="#FF8843" x="9.68920514" y="86.0485153" width="39.5856063" height="1.19949735"></rect>
                    <rect id="Rectangle" fill="#E6E6E6" x="9.68920514" y="90.1979553" width="68.99439" height="1.19949735"></rect>
                    <rect id="Rectangle" fill="#E6E6E6" x="9.68920514" y="94.3473975" width="68.9268277" height="1.19949735"></rect>
                    <polygon id="Path" fill="#E6E6E6" points="87.0537153 0 0 0 0 28.5347428 3.29750968 28.5347428 3.29750968 35.9978242 10.7717299 28.5347428 87.0537153 28.5347428"></polygon>
                    <rect id="Rectangle" fill="#FFFFFF" x="2.41816026" y="2.77876928" width="82.2174691" height="22.8278527"></rect>
                    <rect id="Rectangle" fill="#FF8843" x="9.68920514" y="9.66300668" width="39.5856063" height="1.19949735"></rect>
                    <rect id="Rectangle" fill="#E6E6E6" x="9.68920514" y="13.8124467" width="68.99439" height="1.19949735"></rect>
                    <rect id="Rectangle" fill="#E6E6E6" x="9.68920514" y="17.9618867" width="68.9268277" height="1.19949735"></rect>
                    <polygon id="Path" fill="#FFB8B8" points="152.945821 156.354231 149.363049 156.354007 147.658458 142.554792 152.946496 142.555242"></polygon>
                    <path d="M153.859685,159.822015 L142.306656,159.821586 L142.306656,159.675687 C142.306827,157.196052 144.320007,155.185965 146.803418,155.185834 L146.803701,155.185834 L153.859899,155.186119 L153.859685,159.822015 Z" id="Path" fill="#2F2E41"></path>
                    <polygon id="Path" fill="#FFB8B8" points="147.908147 145.979249 144.574163 147.289188 137.927135 135.071928 142.847957 133.138603"></polygon>
                    <path d="M150.030335,148.872113 L139.279649,153.095955 L139.226139,152.960186 C138.316882,150.65273 139.453016,148.04617 141.763875,147.138016 L141.76414,147.13791 L148.3303,144.558154 L150.030335,148.872113 Z" id="Path" fill="#2F2E41"></path>
                    <path d="M146.816202,151.870405 L147.957105,110.006241 L142.880403,127.953111 L146.548492,140.405742 L140.463027,145.570549 L134.25969,125.808995 L134.248702,125.774229 L140.414293,93.2343018 L158.649139,92.353459 L158.779569,92.3469037 L158.800474,92.475717 C158.818036,92.5840079 160.541299,103.388094 159.09216,111.201415 C157.648654,118.98481 154.160512,152.002631 154.125479,152.335475 L154.110495,152.47739 L146.816202,151.870405 Z" id="Path" fill="#2F2E41"></path>
                    <path d="M141.35892,95.8443481 L141.25596,95.8033121 L144.639926,64.8062156 L144.738678,64.7815657 C148.177806,63.9229494 152.811484,63.9980388 155.267602,64.1190087 C156.034986,64.1586097 156.669258,64.7303803 156.786882,65.4885779 L160.855251,92.2431763 L160.821704,92.2910598 C158.009045,96.3028741 153.71121,97.3934624 149.868526,97.3934624 C146.965144,97.356329 144.088616,96.8326772 141.35892,95.8443481 L141.35892,95.8443481 Z" id="Path" fill="#FF8843"></path>
                    <path d="M157.473987,104.900426 L157.351691,104.889311 L155.190404,64.0388342 L161.75805,65.5199247 C163.244418,65.8600038 164.230313,67.2700334 164.037798,68.7804245 L163.186065,75.5706911 L163.477893,87.5166548 C163.681244,88.2504547 167.006705,100.405872 165.159138,103.573032 C164.970492,103.935906 164.639118,104.204029 164.244488,104.313102 C162.470644,104.738618 160.652252,104.951096 158.82794,104.94611 C157.998846,104.94611 157.486683,104.901566 157.473987,104.900426 Z" id="Path" fill="#3F3D56"></path>
                    <path d="M138.133057,105.177417 C137.486179,104.887978 137.006999,104.319544 136.831756,103.633732 C136.403791,101.913366 137.848509,99.7498677 138.057067,99.4495101 L139.804527,82.8739158 L137.205278,67.5614522 C137.115401,67.0321377 137.247876,66.489231 137.571523,66.0605143 C137.89517,65.6317976 138.381403,65.3551381 138.915777,65.2956524 L146.319454,64.4712334 L145.943647,80.2236901 C149.12134,90.9479839 142.20114,106.411053 142.130858,106.566079 L142.091973,106.651854 L141.997717,106.651854 C141.960473,106.651854 141.052886,106.63504 138.133057,105.177417 Z" id="Path" fill="#3F3D56"></path>
                    <ellipse id="Oval" fill="#FFB8B8" transform="translate(149.903535, 54.158247) rotate(-28.663200) translate(-149.903535, -54.158247) " cx="149.903535" cy="54.1582466" rx="7.17555187" ry="7.16966031"></ellipse>
                    <path d="M158.122859,97.5075015 C157.992186,96.7082912 158.222764,95.8923371 158.752549,95.2791965 C159.282334,94.6660559 160.056906,94.3187124 160.867841,94.3306293 L163.3524,88.5909042 L167.213978,89.2477489 L163.591286,97.3041518 C163.478457,98.6935747 162.342671,99.7791502 160.947533,99.8310312 C159.552395,99.8829122 158.338884,98.8846999 158.122859,97.507506 L158.122859,97.5075015 Z" id="Path" fill="#FFB8B8"></path>
                    <path d="M161.621167,92.248167 L163.672866,79.9565339 L160.168315,74.1243262 L161.06113,65.8037592 L161.259915,65.7541739 C162.629618,65.4163835 164.049056,66.082744 164.662292,67.3514325 L170.38722,79.2808686 L170.410124,79.3284576 L166.252067,95.6390313 L161.621167,92.248167 Z" id="Path" fill="#3F3D56"></path>
                    <path d="M154.608215,59.9377138 C154.772264,59.9851657 155.46113,59.2083177 156.215473,58.2770399 C157.819248,56.3124705 158.479256,53.74436 158.021054,51.2514698 C158.010594,51.1960216 158.000147,51.1433924 157.989736,51.0939308 C157.73989,49.9068607 156.605895,48.8134332 155.417427,49.0648665 C155.507191,48.0132437 154.797776,47.0228264 153.898751,46.4677105 C152.999726,45.9125947 151.934423,45.7068418 150.895711,45.5111264 C149.71074,45.2878522 148.510774,45.0635641 147.307311,45.1397236 C146.146766,45.2110062 145.022253,45.5696633 144.035227,46.1833365 C141.57774,47.7973413 140.413368,50.7881146 141.133892,53.6356273 C142.646318,51.9208271 144.438545,50.0555895 147.028948,50.7987819 C147.615497,50.973128 148.162802,51.2589442 148.640797,51.6405288 C150.215151,52.8751992 151.006727,54.6933828 151.772393,56.4700696 C152.154831,55.4978008 153.5736,55.1320024 154.379675,55.7978392 C154.897077,56.2252231 155.110087,56.9357804 155.090535,57.6059808 C155.036702,58.2754011 154.881739,58.9328357 154.630908,59.5559632" id="Path" fill="#2F2E41"></path>
                    <path d="M153.682609,86.7135204 L153.344888,86.7135204 L153.344888,85.386862 C153.343988,84.5679718 152.67936,83.9043542 151.859223,83.903456 L147.625834,83.903456 C146.805697,83.9043542 146.141069,84.5679718 146.140169,85.386862 L146.140169,94.5595282 C146.141069,95.3784183 146.805697,96.0420359 147.625834,96.0429342 L151.859223,96.0429342 C152.67936,96.0420359 153.343988,95.3784183 153.344888,94.5595282 L153.344888,88.2871564 L153.682609,88.2871564 L153.682609,86.7135204 Z" id="Path" fill="#2F2E41"></path>
                    <ellipse id="Oval" fill="#FFFFFF" cx="149.855102" cy="88.2871564" rx="1" ry="1"></ellipse>
                    <path d="M150.590011,91.8701616 C150.24322,91.1381352 149.589504,90.5970806 148.804766,90.3925856 C148.020028,90.1880905 147.184879,90.3411615 146.524041,90.81061 L141.215422,87.4935425 L138.409758,90.2230278 L145.972448,94.8022346 C146.855255,95.8821477 148.407484,96.1321045 149.585546,95.384055 C150.763609,94.6360055 151.195138,93.1263964 150.590011,91.8701616 L150.590011,91.8701616 Z" id="Path" fill="#FFB8B8"></path>
                    <path d="M131.602932,85.5512125 L136.460515,67.2283225 C136.725444,66.246938 137.697383,65.6302689 138.699728,65.8076011 L140.369843,66.1106677 L142.149482,75.8835884 L138.530055,84.1212315 L145.077088,88.0458438 L144.156445,95.3995081 L131.602932,85.5512125 Z" id="Path" fill="#3F3D56"></path>
                    <path d="M186.774853,160 L100.993671,160 C100.869325,160 100.768523,159.899351 100.768523,159.775195 C100.768523,159.651038 100.869325,159.55039 100.993671,159.55039 L186.774853,159.55039 C186.899198,159.55039 187,159.651038 187,159.775195 C187,159.899351 186.899198,160 186.774853,160 Z" id="Path" fill="#3F3D56"></path>
                </g>
            </g>
        </g>
    </g>
</svg>