<?xml version="1.0" encoding="UTF-8"?>
<svg width="18px" height="12px" viewBox="0 0 18 12" version="1.1" xmlns="http://www.w3.org/2000/svg" xmlns:xlink="http://www.w3.org/1999/xlink">
    <title>Components/Icon/Primary/Video</title>
    <g id="Symbols" stroke="none" stroke-width="1" fill="none" fill-rule="evenodd">
        <g id="Artboard" transform="translate(-83.000000, -1196.000000)" fill="#2A3347">
            <g id="Components/Icon/Primary/Video" transform="translate(80.000000, 1190.000000)">
                <path d="M17,10.5 L17,7 C17,6.45 16.55,6 16,6 L4,6 C3.45,6 3,6.45 3,7 L3,17 C3,17.55 3.45,18 4,18 L16,18 C16.55,18 17,17.55 17,17 L17,13.5 L21,17.5 L21,6.5 L17,10.5 Z M15,16 L5,16 L5,8 L15,8 L15,16 Z M9,15 L11,15 L11,13 L13,13 L13,11 L11,11 L11,9 L9,9 L9,11 L7,11 L7,13 L9,13 L9,15 Z" id="Shape"></path>
            </g>
        </g>
    </g>
</svg>