<?xml version="1.0" encoding="UTF-8"?>
<svg width="94px" height="60px" viewBox="0 0 94 60" version="1.1" xmlns="http://www.w3.org/2000/svg" xmlns:xlink="http://www.w3.org/1999/xlink">
    <title>CygnusLogo_REACH-stacked_light@3x</title>
    <defs>
        <linearGradient x1="-112.238148%" y1="-99.1955216%" x2="51.8743109%" y2="54.8943677%" id="linearGradient-1">
            <stop stop-color="#FFC230" offset="0%"></stop>
            <stop stop-color="#FF8843" offset="100%"></stop>
        </linearGradient>
        <linearGradient x1="-21.3898164%" y1="-13.8673571%" x2="71.7863105%" y2="73.6255904%" id="linearGradient-2">
            <stop stop-color="#FFC230" offset="0%"></stop>
            <stop stop-color="#FF8843" offset="100%"></stop>
        </linearGradient>
        <linearGradient x1="14.2483258%" y1="19.596892%" x2="82.9882226%" y2="84.1455185%" id="linearGradient-3">
            <stop stop-color="#FFC230" offset="0%"></stop>
            <stop stop-color="#FF8843" offset="100%"></stop>
        </linearGradient>
    </defs>
    <g id="iOS-App" stroke="none" stroke-width="1" fill="none" fill-rule="evenodd">
        <g id="Cygnus-Login-3" transform="translate(-141.000000, -16.000000)" fill-rule="nonzero">
            <g id="CygnusLogo_REACH-stacked_light" transform="translate(141.000000, 16.000000)">
                <path d="M31.771504,20.6770449 L40.3868074,17.414248 C38.8901521,16.300102 36.9286007,16.0262648 35.1840381,16.6879292 C33.4394755,17.3495935 32.1528797,18.855363 31.771504,20.6817942 L31.771504,20.6770449 Z" id="Path" fill="url(#linearGradient-1)"></path>
                <path d="M25.4263852,16.0290237 L40.5989446,10.2744063 C37.9631793,8.31214243 34.5085893,7.82982324 31.4361627,8.99512697 C28.363736,10.1604307 26.0979048,12.8123795 25.4263852,16.0290237 L25.4263852,16.0290237 Z" id="Path" fill="url(#linearGradient-2)"></path>
                <path d="M19.6131926,10.3852243 L40.1794195,2.58364116 C36.6061971,-0.0750705048 31.9238485,-0.728046705 27.759562,0.851631839 C23.5952754,2.43131038 20.5240533,6.02552254 19.6131926,10.3852243 L19.6131926,10.3852243 Z" id="Path" fill="url(#linearGradient-3)"></path>
                <path d="M48.8833773,5.58047493 C47.1393178,6.2431641 45.1776453,5.96974778 43.6812665,4.85540897 L52.2965699,1.58311346 C51.9172436,3.41155898 50.6298043,4.91934385 48.8833773,5.58047493 L48.8833773,5.58047493 Z M58.2237467,6.20422164 L43.0448549,11.9588391 C45.6805766,13.9203437 49.1346484,14.4022173 52.2065781,13.2369804 C55.2785079,12.0717436 57.5440633,9.42031512 58.2158311,6.20422164 L58.2237467,6.20422164 Z M63.6063325,11.6184697 L43.0369393,19.4184697 C46.6097082,22.0780499 51.292206,22.731726 55.4567434,21.1522728 C59.6212809,19.5728197 62.6926342,15.9783981 63.6031662,11.6184697 L63.6063325,11.6184697 Z" id="Shape" fill="#708999"></path>
                <path d="M0,37.0575198 C0,33.0395778 3.0474934,29.9335092 7.14459103,29.9335092 C9.76147757,29.9335092 12.0791557,31.3092348 13.2395778,33.3846966 L9.7060686,35.4427441 C9.24854881,34.492876 8.28126649,33.9324538 7.09076517,33.9324538 C5.33825858,33.9324538 4.04485488,35.1989446 4.04485488,37.060686 C4.04485488,38.9224274 5.33825858,40.1873351 7.09076517,40.1873351 C8.27810026,40.1873351 9.24538259,39.8358839 9.98944591,38.8385224 L13.2395778,40.7002639 C12.0791557,42.8026385 9.7883905,44.1831135 7.14459103,44.1831135 C3.0474934,44.1688654 0,41.0738786 0,37.0575198 Z" id="Path" fill="#2A3347"></path>
                <path d="M27.125066,30.3166227 L22.5134565,43.3931398 C21.0047493,47.6802111 18.6047493,49.3788918 14.8290237,49.1905013 L14.8290237,45.4147757 C16.7176781,45.4147757 17.6073879,44.8226913 18.1994723,43.1778364 L12.8343008,30.3166227 L17.2828496,30.3166227 L20.2765172,38.5662269 L22.8094987,30.3166227 L27.125066,30.3166227 Z" id="Path" fill="#2A3347"></path>
                <path d="M41.2274406,30.3166227 L41.2274406,43.1240106 C41.2274406,47.6532982 37.6955145,49.5672823 34.1034301,49.5672823 C31.2997361,49.5672823 28.953562,48.516095 27.7139842,46.3044855 L31.1651715,44.3097625 C31.6781003,45.2596306 32.4585752,46.0084433 34.2395778,46.0084433 C36.1266491,46.0084433 37.2854881,45.0379947 37.2854881,43.1240106 L37.2854881,41.8828496 C36.3957784,42.991029 35.1023747,43.6353562 33.3498681,43.6353562 C29.5203166,43.6353562 26.7166227,40.5087071 26.7166227,36.7868074 C26.7166227,33.0649077 29.5203166,29.9382586 33.3498681,29.9382586 C35.1023747,29.9382586 36.5905013,30.585752 37.4802111,31.6907652 L37.4802111,31.6812665 L41.2274406,30.3166227 Z M37.2902375,36.7868074 C37.2902375,34.9266491 35.9430079,33.6601583 34.0274406,33.6601583 C32.1118734,33.6601583 30.7646438,34.9266491 30.7646438,36.7868074 C30.7646438,38.6469657 32.1134565,39.9150396 34.0274406,39.9150396 C35.9414248,39.9150396 37.2902375,38.6469657 37.2902375,36.7868074 Z" id="Shape" fill="#2A3347"></path>
                <path d="M56.4617414,35.5203166 L56.4617414,43.7968338 L52.4168865,43.7968338 L52.4168865,36.1124011 C52.4168865,34.4406332 51.3656992,33.6601583 50.0707124,33.6601583 C48.5873351,33.6601583 47.5630607,34.5229551 47.5630607,36.4369393 L47.5630607,43.7968338 L43.5182058,43.7968338 L43.5182058,31.2633245 L47.5630607,29.9208443 L47.5630607,31.5831135 C48.2912929,30.585752 49.6401055,29.9382586 51.4195251,29.9382586 C54.1424802,29.9382586 56.4617414,31.8791557 56.4617414,35.5203166 Z" id="Path" fill="#2A3347"></path>
                <path d="M71.3176781,30.3166227 L71.3176781,42.7804749 L67.2728232,44.3825858 L67.2728232,42.530343 C66.544591,43.5356201 65.1973615,44.1688654 63.417942,44.1688654 C60.6934037,44.1688654 58.3757256,42.2279683 58.3757256,38.5868074 L58.3757256,30.3166227 L62.4189974,30.3166227 L62.4189974,37.994723 C62.4189974,39.6664908 63.4717678,40.4485488 64.7651715,40.4485488 C66.2485488,40.4485488 67.2728232,39.585752 67.2728232,37.6701847 L67.2728232,30.3166227 L71.3176781,30.3166227 Z" id="Path" fill="#2A3347"></path>
                <path d="M77.3034301,34.2522427 C77.3034301,33.76781 77.7356201,33.4970976 78.4369393,33.4970976 C79.0655175,33.4821199 79.6582783,33.7889467 80.008971,34.3108179 L83.6501319,32.7546174 C82.5118734,30.8865435 80.5931398,29.9382586 78.4369393,29.9382586 C75.6316623,29.9382586 73.1509235,31.4216359 73.1509235,34.3598945 C73.1509235,39.0253298 79.7841689,38.2432718 79.7841689,39.7266491 C79.7841689,40.2649077 79.2997361,40.562533 78.3277045,40.562533 C77.4459103,40.562533 76.8015831,40.2459103 76.3852243,39.6649077 L72.6379947,41.1688654 C73.7176781,43.2110818 75.7187335,44.176781 78.3277045,44.176781 C81.2406332,44.176781 83.9366755,42.8548813 83.9366755,39.7551451 C83.9366755,34.7651715 77.3034301,35.7894459 77.3034301,34.2522427 Z" id="Path" fill="#2A3347"></path>
                <path d="M47.9683377,49.3361478 L47.9683377,50.3192612 C46.2063325,50.3192612 44.5472296,51.405277 44.5472296,54.028496 L44.5472296,59.7277045 L43.521372,59.7277045 L43.521372,49.478628 L44.5472296,49.478628 L44.5472296,51.4875989 C45.2406332,49.8680739 46.5720317,49.3361478 47.9683377,49.3361478 Z" id="Path" fill="#FF8843"></path>
                <path d="M58.6021108,54.6427441 C58.6021108,54.8010554 58.5815303,54.9704485 58.5815303,55.1350923 L49.2997361,55.1350923 C49.5451187,57.4496042 51.307124,58.9662269 53.6437995,58.9662269 C55.3234828,58.9662269 56.594723,58.1873351 57.1883905,57.1013193 L58.0907652,57.6348285 C57.2501319,59.0279683 55.6511873,59.9509235 53.623219,59.9509235 C50.4664908,59.9509235 48.2406332,57.6965699 48.2406332,54.6015831 C48.2406332,51.5936675 50.4126649,49.2538259 53.5472296,49.2538259 C56.6817942,49.2538259 58.6021108,51.8358839 58.6021108,54.6427441 Z M49.2997361,54.1298153 L57.5319261,54.1298153 C57.307124,51.6300792 55.5451187,50.2369393 53.5361478,50.2369393 C51.2042216,50.2369393 49.5039578,51.8564644 49.2997361,54.1298153 Z" id="Shape" fill="#FF8843"></path>
                <path d="M70.7129288,49.478628 L70.7129288,59.7245383 L69.6680739,59.7245383 L69.6680739,57.4100264 C68.7831922,59.0073973 67.0880421,59.9850171 65.2622691,59.9509235 C62.3442167,59.9007185 60.0049504,57.520859 60.0049504,54.6023747 C60.0049504,51.6838903 62.3442167,49.3040309 65.2622691,49.2538259 C67.088225,49.2190224 68.783715,50.1968383 69.6680739,51.794723 L69.6680739,49.478628 L70.7129288,49.478628 Z M69.6680739,54.6015831 C69.6514747,52.2104203 67.7016088,50.2843762 65.3104226,50.2971065 C62.9192365,50.3099635 60.9900916,52.2567616 60.9990484,54.6479651 C61.0080677,57.0391686 62.9517931,58.9714094 65.3430079,58.9662269 C66.4994881,58.9744789 67.610426,58.515992 68.4244687,57.6945001 C69.2385114,56.8730082 69.6868598,55.7579401 69.6680739,54.6015831 L69.6680739,54.6015831 Z" id="Shape" fill="#FF8843"></path>
                <path d="M72.7963061,54.6015831 C72.7963061,51.5699208 75.0918206,49.2538259 78.1788918,49.2538259 C80.1878628,49.2538259 81.9087071,50.2781003 82.646438,51.8770449 L81.8058047,52.36781 C81.2121372,51.0775726 79.8189974,50.2369393 78.1788918,50.2369393 C75.6997361,50.2369393 73.8348285,52.1635884 73.8348285,54.6015831 C73.8348285,57.0395778 75.6997361,58.9662269 78.1788918,58.9662269 C79.8395778,58.9662269 81.1868074,58.1065963 81.8675462,56.8353562 L82.7287599,57.348285 C81.9087071,58.9313984 80.1878628,59.9509235 78.1788918,59.9509235 C75.0918206,59.9509235 72.7963061,57.6348285 72.7963061,54.6015831 Z" id="Path" fill="#FF8843"></path>
                <path d="M93.208971,53.3509235 L93.208971,59.7229551 L92.1641161,59.7229551 L92.1641161,53.3509235 C92.1641161,51.4654354 91.0781003,50.2353562 89.1562005,50.2353562 C87.1472296,50.2353562 85.5688654,51.5477573 85.5688654,54.3134565 L85.5688654,59.7229551 L84.5382586,59.7229551 L84.5382586,45.3799472 L85.562533,45.3799472 L85.562533,51.4258575 C86.3414248,49.9092348 87.6538259,49.2538259 89.2306069,49.2538259 C91.6733509,49.2538259 93.208971,50.8717678 93.208971,53.3509235 Z" id="Path" fill="#FF8843"></path>
            </g>
        </g>
    </g>
</svg>