<?xml version="1.0" encoding="UTF-8"?>
<svg width="140px" height="90px" viewBox="0 0 140 90" version="1.1" xmlns="http://www.w3.org/2000/svg" xmlns:xlink="http://www.w3.org/1999/xlink">
    <title>CygnusLogo_REACH-stacked_dark</title>
    <defs>
        <linearGradient x1="-112.238148%" y1="-99.0527675%" x2="51.8743109%" y2="54.8896846%" id="linearGradient-1">
            <stop stop-color="#FFC230" offset="0%"></stop>
            <stop stop-color="#FF8843" offset="100%"></stop>
        </linearGradient>
        <linearGradient x1="-21.3898164%" y1="-13.8062472%" x2="71.7863105%" y2="73.6029848%" id="linearGradient-2">
            <stop stop-color="#FFC230" offset="0%"></stop>
            <stop stop-color="#FF8843" offset="100%"></stop>
        </linearGradient>
        <linearGradient x1="14.2483258%" y1="19.6259825%" x2="82.9882226%" y2="84.1128472%" id="linearGradient-3">
            <stop stop-color="#FFC230" offset="0%"></stop>
            <stop stop-color="#FF8843" offset="100%"></stop>
        </linearGradient>
    </defs>
    <g id="Symbols" stroke="none" stroke-width="1" fill="none" fill-rule="evenodd">
        <g id="SidebarNav/Products" transform="translate(-40.000000, -40.000000)" fill-rule="nonzero">
            <g id="CygnusLogo_REACH-stacked_dark" transform="translate(40.000000, 40.000000)">
                <path d="M47.7208418,31.037513 L60.6610391,26.1391329 C58.4130609,24.4664849 55.466808,24.0553779 52.8464726,25.048723 C50.2261373,26.0420681 48.2936686,28.3026537 47.7208418,31.0446431 L47.7208418,31.037513 Z" id="Path" fill="url(#linearGradient-1)"></path>
                <path d="M38.1904649,24.0595198 L60.9796695,15.4202128 C57.0207464,12.4743001 51.8319477,11.7502027 47.2171587,13.4996529 C42.6023696,15.2491032 39.1990882,19.2304278 38.1904649,24.0595198 L38.1904649,24.0595198 Z" id="Path" fill="url(#linearGradient-2)"></path>
                <path d="M29.4590417,15.5865818 L60.3495423,3.87420086 C54.9825573,-0.117276697 47.9496634,-1.0975785 41.6948995,1.27396541 C35.4401355,3.64550931 30.8271558,9.04143748 29.4590417,15.5865818 L29.4590417,15.5865818 Z" id="Path" fill="url(#linearGradient-3)"></path>
                <path d="M73.4228986,8.37329526 C70.8033189,9.36817897 67.8568841,8.9577038 65.6093211,7.28476634 L78.5495185,2.37212603 C77.9797698,5.11713948 76.0460343,7.38075066 73.4228986,8.37329526 L73.4228986,8.37329526 Z M87.452146,9.30971532 L64.65343,17.9490223 C68.6122876,20.8937951 73.800308,21.6172235 78.4143507,19.8678737 C83.0283933,18.1185239 86.4312605,14.1379805 87.4402568,9.30971532 L87.452146,9.30971532 Z M95.5367971,17.4380317 L64.6415408,29.1480359 C70.0078446,33.1408174 77.0409625,34.12217 83.2961033,31.7509645 C89.5512442,29.3797589 94.164421,23.9835164 95.5320414,17.4380317 L95.5367971,17.4380317 Z" id="Shape" fill="#708999"></path>
                <path d="M0,55.6292349 C0,49.5971686 4.5773392,44.9340819 10.7311854,44.9340819 C14.6617525,44.9340819 18.1429081,46.9994348 19.8858637,50.1152894 L14.5785281,53.2050003 C13.8913328,51.7789798 12.4384734,50.9376278 10.6503388,50.9376278 C8.01807157,50.9376278 6.07537748,52.8389883 6.07537748,55.6339883 C6.07537748,58.4289884 8.01807157,60.3279722 10.6503388,60.3279722 C12.4337178,60.3279722 13.8865771,59.8003446 15.0041612,58.3030232 L19.8858637,61.0980232 C18.1429081,64.2542817 14.7021757,66.3267647 10.7311854,66.3267647 C4.5773392,66.3053744 0,61.6589246 0,55.6292349 Z" id="Path" fill="#FFFFFF"></path>
                <path d="M40.7418856,45.5092434 L33.8152419,65.1407911 C31.5491618,71.5768965 27.9443586,74.1270964 22.2732136,73.844269 L22.2732136,68.1758379 C25.109975,68.1758379 26.4463203,67.2869518 27.3356319,64.8175598 L19.2771371,45.5092434 L25.9588634,45.5092434 L30.4553561,57.8942307 L34.2598978,45.5092434 L40.7418856,45.5092434 Z" id="Path" fill="#FFFFFF"></path>
                <path d="M61.9236714,45.5092434 L61.9236714,64.736752 C61.9236714,71.5364926 56.6187136,74.4099237 51.2233979,74.4099237 C47.0122459,74.4099237 43.4882891,72.8317945 41.6264416,69.5115436 L46.8101296,66.5169008 C47.5805493,67.9429212 48.7528237,69.0671006 51.427892,69.0671006 C54.2622756,69.0671006 56.0028534,67.6101831 56.0028534,64.736752 L56.0028534,62.8734186 C54.6665081,64.5371091 52.7238141,65.5044263 50.0915468,65.5044263 C44.3395553,65.5044263 40.1284033,60.8104424 40.1284033,55.2228191 C40.1284033,49.6351958 44.3395553,44.941212 50.0915468,44.941212 C52.7238141,44.941212 54.9589823,45.9132826 56.2953275,47.5722196 L56.2953275,47.5579594 L61.9236714,45.5092434 Z M56.0099869,55.2228191 C56.0099869,52.4301958 53.9864463,50.5288353 51.1092617,50.5288353 C48.232077,50.5288353 46.2085364,52.4301958 46.2085364,55.2228191 C46.2085364,58.0154424 48.2344549,59.9191797 51.1092617,59.9191797 C53.9840685,59.9191797 56.0099869,58.0154424 56.0099869,55.2228191 Z" id="Shape" fill="#FFFFFF"></path>
                <path d="M84.8056117,53.3214586 L84.8056117,65.7468498 L78.7302342,65.7468498 L78.7302342,54.2103446 C78.7302342,51.7005487 77.1513494,50.5288353 75.2062775,50.5288353 C72.9782428,50.5288353 71.4397812,51.8241372 71.4397812,54.6975683 L71.4397812,65.7468498 L65.3644038,65.7468498 L65.3644038,46.9305104 L71.4397812,44.9150683 L71.4397812,47.410604 C72.533587,45.9132826 74.5595054,44.941212 77.2321959,44.941212 C81.3220782,44.941212 84.8056117,47.855047 84.8056117,53.3214586 Z" id="Path" fill="#FFFFFF"></path>
                <path d="M107.119249,45.5092434 L107.119249,64.2210079 L101.043871,66.626229 L101.043871,63.8454892 C99.9500654,65.3546941 97.9265248,66.3053744 95.2538343,66.3053744 C91.1615741,66.3053744 87.6804185,63.3915394 87.6804185,57.9251278 L87.6804185,45.5092434 L93.7534181,45.5092434 L93.7534181,57.0362418 C93.7534181,59.5460377 95.3346808,60.7201278 97.2773749,60.7201278 C99.5054096,60.7201278 101.043871,59.4248259 101.043871,56.5490181 L101.043871,45.5092434 L107.119249,45.5092434 Z" id="Path" fill="#FFFFFF"></path>
                <path d="M116.109856,51.4177213 C116.109856,50.6904509 116.759006,50.2840351 117.812389,50.2840351 C118.756514,50.2615493 119.646841,50.7221831 120.173582,51.5056593 L125.642611,49.1693625 C123.932945,46.3648557 121.051005,44.941212 117.812389,44.941212 C113.598859,44.941212 109.872786,47.1681805 109.872786,51.579337 C109.872786,58.5834739 119.835929,57.4093838 119.835929,59.6363523 C119.835929,60.4444305 119.108311,60.8912503 117.648318,60.8912503 C116.323862,60.8912503 115.356081,60.4159101 114.73071,59.543661 L109.102366,61.8015266 C110.724052,64.8674705 113.72964,66.3172579 117.648318,66.3172579 C122.023541,66.3172579 126.073,64.3327129 126.073,59.6791329 C126.073,52.1877724 116.109856,53.7254977 116.109856,51.4177213 Z" id="Path" fill="#FFFFFF"></path>
                <path d="M72.0485079,74.0629255 L72.0485079,75.5388566 C69.4019736,75.5388566 66.9099988,77.1692732 66.9099988,81.1074663 L66.9099988,89.6635887 L65.3691594,89.6635887 L65.3691594,74.2768285 L66.9099988,74.2768285 L66.9099988,77.2928617 C67.9514921,74.8614969 69.9512543,74.0629255 72.0485079,74.0629255 Z" id="Path" fill="#FF8843"></path>
                <path d="M88.0204494,82.0296261 C88.0204494,82.2672962 87.9895375,82.5216032 87.9895375,82.7687801 L74.0482701,82.7687801 C74.4168351,86.2435165 77.0633694,88.5203957 80.5730591,88.5203957 C83.0959458,88.5203957 85.0053501,87.351059 85.8970396,85.7206423 L87.2524076,86.5215904 C85.9897753,88.613087 83.5881584,89.9987035 80.5421472,89.9987035 C75.8007371,89.9987035 72.4574961,86.6142818 72.4574961,81.9678319 C72.4574961,77.4521006 75.7198906,73.939337 80.4280109,73.939337 C85.1361313,73.939337 88.0204494,77.8157358 88.0204494,82.0296261 Z M74.0482701,81.2595751 L86.4130306,81.2595751 C86.0753775,77.5067647 83.4288432,75.4152681 80.4113661,75.4152681 C76.9088099,75.4152681 74.3550113,77.8466329 74.0482701,81.2595751 Z" id="Shape" fill="#FF8843"></path>
                <path d="M106.210914,74.2768285 L106.210914,89.6588353 L104.641541,89.6588353 L104.641541,86.1840989 C103.312447,88.5822041 100.76633,90.0498877 98.0240162,89.9987035 C93.6410974,89.9233316 90.1275164,86.35049 90.1275164,81.9690203 C90.1275164,77.5875505 93.6410974,74.0147089 98.0240162,73.939337 C100.766604,73.8870872 103.313233,75.3550652 104.641541,77.7539416 L104.641541,74.2768285 L106.210914,74.2768285 Z M104.641541,81.9678319 C104.616609,78.3780209 101.687908,75.4864843 98.0963428,75.5055961 C94.504778,75.5248981 91.6071997,78.4475922 91.6206528,82.0374644 C91.6341999,85.6273366 94.5536781,88.528176 98.1452859,88.5203957 C99.8823207,88.5327843 101.550951,87.8444658 102.773644,86.6111744 C103.996337,85.3778829 104.669757,83.7038506 104.641541,81.9678319 L104.641541,81.9678319 Z" id="Shape" fill="#FF8843"></path>
                <path d="M109.34015,81.9678319 C109.34015,77.4164501 112.788016,73.939337 117.424801,73.939337 C120.442278,73.939337 123.026988,75.4770624 124.135061,77.87753 L122.872429,78.6143073 C121.98074,76.6772962 119.888242,75.4152681 117.424801,75.4152681 C113.701106,75.4152681 110.900012,78.3077129 110.900012,81.9678319 C110.900012,85.627951 113.701106,88.5203957 117.424801,88.5203957 C119.919153,88.5203957 121.942694,87.2298472 122.965165,85.3213566 L124.258709,86.0914076 C123.026988,88.4681083 120.442278,89.9987035 117.424801,89.9987035 C112.788016,89.9987035 109.34015,86.5215904 109.34015,81.9678319 Z" id="Path" fill="#FF8843"></path>
                <path d="M140,80.0902384 L140,89.6564586 L138.430627,89.6564586 L138.430627,80.0902384 C138.430627,77.2595879 136.799429,75.4128914 133.912733,75.4128914 C130.895256,75.4128914 128.524551,77.3831763 128.524551,81.5352724 L128.524551,89.6564586 L126.976578,89.6564586 L126.976578,68.1235504 L128.51504,68.1235504 L128.51504,77.2001704 C129.684936,74.9232911 131.656165,73.939337 134.024492,73.939337 C137.693497,73.939337 140,76.3683251 140,80.0902384 Z" id="Path" fill="#FF8843"></path>
            </g>
        </g>
    </g>
</svg>