<?xml version="1.0" encoding="UTF-8"?>
<svg width="135px" height="160px" viewBox="0 0 135 160" version="1.1" xmlns="http://www.w3.org/2000/svg" xmlns:xlink="http://www.w3.org/1999/xlink">
    <title>VideoShare-Illustration</title>
    <defs>
        <linearGradient x1="49.9986366%" y1="100.003283%" x2="49.9986366%" y2="0%" id="linearGradient-1">
            <stop stop-color="#808080" stop-opacity="0.25" offset="0%"></stop>
            <stop stop-color="#808080" stop-opacity="0.12" offset="54%"></stop>
            <stop stop-color="#808080" stop-opacity="0.1" offset="100%"></stop>
        </linearGradient>
    </defs>
    <g id="Android-App---AV-Revisions" stroke="none" stroke-width="1" fill="none" fill-rule="evenodd">
        <g id="6-Session-VideoShare_NotStarted" transform="translate(-113.000000, -195.000000)">
            <g id="Group-8" transform="translate(20.000000, 104.000000)">
                <g id="VideoShare-Illustration" transform="translate(93.000000, 91.000000)">
                    <path d="M38.9937028,134.269002 L37.658302,160 C37.658302,160 94.1441845,106.046739 101.181311,90.2606456 C108.218438,74.4745522 94.9720769,35.424798 94.9720769,35.424798 L65.5816899,51.6262916 L38.9937028,134.269002 Z" id="Path" fill="#9F616A" fill-rule="nonzero"></path>
                    <path d="M125.604309,24.6237853 L134.297234,25.4546312 C134.297234,25.4546312 138.850684,35.4247873 124.776406,36.2556359 L125.604309,24.6237853 Z" id="Path" fill="#9F616A" fill-rule="nonzero"></path>
                    <path d="M125.604309,39.9944437 L134.297234,40.8252896 C134.297234,40.8252896 138.850684,50.7954457 124.776406,51.6262916 L125.604309,39.9944437 Z" id="Path" fill="#9F616A" fill-rule="nonzero"></path>
                    <path d="M125.604309,56.6113696 L134.297234,57.4422155 C134.297234,57.4422155 138.850684,67.4123715 124.776406,68.2432201 L125.604309,56.6113696 Z" id="Path" fill="#9F616A" fill-rule="nonzero"></path>
                    <path d="M123.120613,73.2282981 L131.813538,74.059144 C131.813538,74.059144 136.366988,84.0293001 122.292708,84.860146 L123.120613,73.2282981 Z" id="Path" fill="#9F616A" fill-rule="nonzero"></path>
                    <path d="M129.836392,28.629161 L129.176795,28.629161 L129.176795,10.4953606 C129.176798,7.71182051 128.074968,5.04228567 126.113694,3.0740236 C124.15242,1.10576153 121.49236,0 118.718697,0 L80.4360899,0 C77.6624278,0 75.0023654,1.10574548 73.0410861,3.07400086 C71.0798068,5.04225623 69.9779628,7.7117866 69.9779628,10.4953257 L69.9779628,109.9788 C69.9779628,112.76234 71.0797905,115.431874 73.0410643,117.400136 C75.002338,119.368398 77.6623977,120.474161 80.4360605,120.474161 L118.718646,120.474161 C124.494501,120.474161 129.176769,115.775262 129.176787,109.97884 L129.176787,41.5371109 L129.836392,41.5371109 L129.836392,28.629161 Z" id="Path" fill="#3F3D56" fill-rule="nonzero"></path>
                    <path d="M126.999221,10.5175455 L126.999221,109.855281 C126.999221,111.933917 126.176817,113.927497 124.712222,115.397321 C123.247626,116.867145 121.261127,117.692514 119.189867,117.692514 L80.7222369,117.692514 C78.6510245,117.692514 76.6646157,116.866939 75.2000538,115.397149 C73.735492,113.927358 72.9128826,111.933869 72.9128826,109.855281 L72.9128826,10.5175455 C72.9128826,8.43895794 73.7354939,6.445469 75.2000554,4.97567909 C76.6646169,3.50588917 78.6510249,2.68031232 80.7222369,2.68031232 L85.390798,2.68031232 C84.9239274,3.82840004 85.0572309,5.13439971 85.7463431,6.16365433 C86.4354552,7.19290895 87.5899307,7.81032997 88.8255423,7.81043009 L110.758061,7.81043009 C111.993356,7.80952069 113.147253,7.19192401 113.836189,6.16293218 C114.525125,5.13394034 114.658809,3.82841246 114.192805,2.68031232 L119.189875,2.68031232 C121.261085,2.68031232 123.247491,3.50589225 124.712051,4.97568193 C126.176611,6.44547161 126.999221,8.43895933 126.999221,10.5175455 L126.999221,10.5175455 Z" id="Path" fill="#F1F1F1" fill-rule="nonzero"></path>
                    <polygon id="Rectangle" fill="#000000" fill-rule="nonzero" opacity="0.2" transform="translate(131.737065, 26.400672) rotate(-20.222086) translate(-131.737065, -26.400672) " points="129.007813 26.2698485 134.466626 26.2635461 134.466317 26.5314959 129.007504 26.5377983"></polygon>
                    <polygon id="Rectangle" fill="#000000" fill-rule="nonzero" opacity="0.2" transform="translate(131.737065, 41.946486) rotate(-20.222086) translate(-131.737065, -41.946486) " points="129.007813 41.8156626 134.466626 41.8093602 134.466317 42.07731 129.007504 42.0836124"></polygon>
                    <polygon id="Rectangle" fill="#000000" fill-rule="nonzero" opacity="0.2" transform="translate(131.737062, 58.564425) rotate(-20.222086) translate(-131.737062, -58.564425) " points="129.00781 58.4336016 134.466623 58.4272993 134.466315 58.695249 129.007502 58.7015514"></polygon>
                    <polygon id="Rectangle" fill="#000000" fill-rule="nonzero" opacity="0.2" transform="translate(130.379847, 74.836210) rotate(-25.638990) translate(-130.379847, -74.836210) " points="128.996593 74.7042298 131.763472 74.7003888 131.763101 74.9681911 128.996222 74.9720321"></polygon>
                    <path d="M0,147.670563 L46.3330654,94.6225913 L47.9888609,60.5578909 L65.3747108,31.4782686 L70.3420999,19.0155722 C70.3420999,19.0155722 81.9326735,20.2618424 72.4118455,43.9409624 L68.4793279,56.6113696 L68.4793279,56.6113696 C72.024184,64.2736293 71.1898603,72.61976 71.1898603,81.0675952 L71.1898603,110.10173 C71.1898603,116.938344 41.397069,154.177555 37.6182426,159.865963 L37.6182426,159.865963 L0,147.670563 Z" id="Path" fill="#9F616A" fill-rule="nonzero"></path>
                    <polygon id="Path" fill="#000000" fill-rule="nonzero" opacity="0.2" points="68.979326 33.942403 65.5227747 32.2377244 65.640557 31.9970324 68.8340344 33.5722519 73.6548312 20.8882099 73.9042841 20.9838971"></polygon>
                    <ellipse id="Oval" fill="#FF8843" fill-rule="nonzero" cx="100.27415" cy="105.695114" rx="7.21116421" ry="7.23684325"></ellipse>
                    <ellipse id="Oval" fill="#FFFFFF" fill-rule="nonzero" cx="83.4480997" cy="105.963145" rx="4.86308362" ry="4.88040111"></ellipse>
                    <path d="M83.4480997,111.055739 C80.645518,111.055739 78.3735767,108.775707 78.3735767,105.963145 C78.3735767,103.150584 80.645518,100.870552 83.4480997,100.870552 C86.2506813,100.870552 88.5226227,103.150584 88.5226227,105.963145 C88.5194376,108.774382 86.249361,111.052542 83.4480997,111.055739 Z M83.4480997,101.294934 C81.5666841,101.294934 79.8705249,102.432307 79.1505383,104.176698 C78.4305517,105.921089 78.8285269,107.92897 80.1588886,109.264069 C81.4892503,110.599169 83.4900066,110.998561 85.2282079,110.276011 C86.9664092,109.55346 88.0997466,107.851261 88.0997466,105.963145 C88.0968456,103.38617 86.0159308,101.297845 83.4480997,101.294934 L83.4480997,101.294934 Z" id="Shape" fill="#CBCBCB" fill-rule="nonzero"></path>
                    <g id="aaa7a710-b437-4434-978d-0883174430d7" transform="translate(79.733453, 103.682724)" fill="#E5E5E5" fill-rule="nonzero">
                        <path d="M4.75719702,3.97790859 L0.0176913895,3.97790859 C0.01176257,3.97796475 0.00584063942,3.97748026 0,3.97645606 L2.24166251,0.0799841925 C2.26949973,0.0305600891 2.3216917,0 2.37826332,0 C2.43483494,0 2.48702692,0.0305600891 2.51486414,0.0799841925 L4.01922517,2.6948406 L4.09133681,2.81993614 L4.75719702,3.97790859 Z" id="a7a108c7-0bd7-4f18-a7e8-a19423e60387-1476"></path>
                        <path d="M7.39599436,3.97795167 L3.29667987,3.97795167 L4.09099762,2.82008355 L4.14815277,2.73666687 L5.18326999,1.22767516 C5.22029376,1.18098611 5.27534475,1.15228749 5.33469669,1.14873496 C5.39404864,1.14518242 5.45210846,1.16711073 5.49439968,1.20905235 C5.49975712,1.21493543 5.50473493,1.22115568 5.50930275,1.22767516 L7.39599436,3.97795167 Z" id="ad5937c6-b05a-482c-a1d5-f08ce1790654-1477"></path>
                    </g>
                    <ellipse id="Oval" fill="#FFFFFF" fill-rule="nonzero" cx="116.833119" cy="105.963145" rx="4.86308362" ry="4.88040111"></ellipse>
                    <path d="M116.833119,111.055739 C114.030538,111.055739 111.758596,108.775707 111.758596,105.963145 C111.758596,103.150584 114.030538,100.870552 116.833119,100.870552 C119.635701,100.870552 121.907642,103.150584 121.907642,105.963145 C121.904457,108.774382 119.63438,111.052542 116.833119,111.055739 Z M116.833119,101.294934 C114.951704,101.294934 113.255544,102.432307 112.535558,104.176698 C111.815571,105.921089 112.213546,107.92897 113.543908,109.264069 C114.87427,110.599169 116.875026,110.998561 118.613227,110.276011 C120.351429,109.55346 121.484766,107.851261 121.484766,105.963145 C121.481865,103.38617 119.40095,101.297845 116.833119,101.294934 L116.833119,101.294934 Z" id="Shape" fill="#CBCBCB" fill-rule="nonzero"></path>
                    <path d="M118.841944,105.444371 L118.683803,105.603102 L118.683803,104.454111 C118.683797,104.325896 118.580229,104.221949 118.452469,104.221949 L114.982435,104.221949 C114.8996,104.221668 114.822936,104.265855 114.781437,104.337802 C114.739938,104.409748 114.739938,104.498471 114.781437,104.570417 C114.822936,104.642364 114.8996,104.686551 114.982435,104.686269 L118.221132,104.686269 L118.221132,105.603102 L118.063106,105.444371 C117.996947,105.377947 117.89743,105.358061 117.810964,105.393985 C117.724497,105.429909 117.668109,105.51457 117.668095,105.608487 L117.668095,105.620012 C117.668107,105.681584 117.692486,105.740631 117.735869,105.78417 L118.288906,106.339177 C118.332283,106.382715 118.391119,106.407176 118.452468,106.407176 C118.513816,106.407176 118.572652,106.382715 118.616029,106.339177 L119.169066,105.78417 C119.212451,105.740632 119.236841,105.681585 119.236841,105.620012 L119.236841,105.608487 C119.236841,105.514582 119.180494,105.429918 119.094043,105.39399 C119.007591,105.358061 118.908085,105.377947 118.841944,105.444371 L118.841944,105.444371 Z" id="Path" fill="#E5E5E5" fill-rule="nonzero"></path>
                    <path d="M118.683803,107.240014 L115.445106,107.240014 L115.445106,106.323181 L115.603244,106.481912 C115.669386,106.548336 115.768892,106.568222 115.855343,106.532293 C115.941795,106.496365 115.998159,106.411701 115.998141,106.317796 L115.998141,106.306271 C115.998129,106.244698 115.973751,106.185651 115.930367,106.142113 L115.377324,105.587119 C115.333946,105.543583 115.27511,105.519125 115.213761,105.519125 C115.152413,105.519125 115.093577,105.543583 115.050199,105.587119 L114.497164,106.142126 C114.45378,106.185664 114.42939,106.244712 114.42939,106.306284 L114.42939,106.31781 C114.42939,106.411728 114.485789,106.49639 114.572257,106.532315 C114.658725,106.56824 114.758243,106.548352 114.824401,106.481925 L114.98243,106.323194 L114.98243,107.472188 C114.982436,107.600403 115.086004,107.704347 115.213764,107.704347 L118.683803,107.704347 C118.766638,107.704628 118.843302,107.660441 118.884802,107.588495 C118.926301,107.516548 118.926301,107.427825 118.884802,107.355879 C118.843302,107.283932 118.766638,107.239745 118.683803,107.240027 L118.683803,107.240014 Z" id="Path" fill="#E5E5E5" fill-rule="nonzero"></path>
                    <rect id="Rectangle" fill="#FFFFFF" fill-rule="nonzero" x="75.778674" y="12.2134649" width="11.9335794" height="1"></rect>
                    <rect id="Rectangle" fill="#FFFFFF" fill-rule="nonzero" x="93.9401246" y="12.2134649" width="11.9335794" height="1"></rect>
                    <rect id="Rectangle" fill="#FFFFFF" fill-rule="nonzero" x="112.101575" y="12.2134649" width="11.9335794" height="1"></rect>
                    <rect id="Rectangle" fill="#FFFFFF" fill-rule="nonzero" x="75.778674" y="94.2310217" width="11.9335794" height="1"></rect>
                    <rect id="Rectangle" fill="#FFFFFF" fill-rule="nonzero" x="93.9401246" y="94.2310217" width="11.9335794" height="1"></rect>
                    <rect id="Rectangle" fill="#FFFFFF" fill-rule="nonzero" x="112.101575" y="94.2310217" width="11.9335794" height="1"></rect>
                    <g id="undraw_broadcast_jhwx" transform="translate(75.850764, 24.390842)">
                        <path d="M43.696368,6.31532112 C45.1180693,7.44887019 46.0223126,9.10949606 46.203901,10.9203588 C46.2313154,11.1972295 46.4679063,11.4056894 46.745598,11.3976472 L47.5589378,11.3737828 C47.705712,11.3696007 47.8441931,11.3046893 47.9414259,11.194496 C48.0386587,11.0843026 48.0859483,10.9386813 48.0720409,10.7922864 C47.6382942,6.20062352 43.6810678,2.75906185 39.0808234,2.9727113 C38.9341348,2.97950993 38.796795,3.04680087 38.7014027,3.15861211 C38.6060104,3.27042335 38.5610712,3.41678534 38.5772517,3.56295797 L38.6677993,4.3727573 C38.697995,4.64823027 38.9353503,4.85367152 39.2118792,4.84368186 C40.8350073,4.77648742 42.4276863,5.29914428 43.696368,6.31532112 Z" id="Path" fill="#FF8843" fill-rule="nonzero"></path>
                        <path d="M43.0474436,7.12989334 C41.8016814,6.13113453 40.2422517,5.60790584 38.6471481,5.6534812 C38.4991627,5.65809045 38.3598552,5.72450894 38.2629801,5.8366432 C38.1661051,5.94877746 38.1205025,6.09639513 38.1372222,6.24372786 L38.2047357,6.8474977 C38.2350375,7.11934526 38.4670013,7.32339667 38.7400785,7.31842226 C41.344753,7.2724324 43.5645742,9.20154867 43.8862002,11.7906146 C43.9185316,12.0633091 44.1530041,12.2664127 44.427103,12.2591528 L45.0331365,12.2416522 C45.1808546,12.2378344 45.320245,12.1723113 45.4175611,12.0609459 C45.5148773,11.9495805 45.5612474,11.8025255 45.5454452,11.6553829 C45.3458866,9.87450974 44.4471394,8.24629983 43.0474436,7.12989334 L43.0474436,7.12989334 Z" id="Path" fill="#FF8843" fill-rule="nonzero"></path>
                        <path d="M40.5168765,10.3054522 C41.2487824,10.8895341 41.7349465,11.7276279 41.8790619,12.6537112 C41.917554,12.92167 42.1497223,13.1186805 42.4199646,13.1127035 L42.7130529,13.1039532 C42.8649883,13.0993027 43.0076608,13.0297075 43.1049878,12.9127685 C43.2023149,12.7958294 43.2449769,12.6427442 43.2221845,12.4922286 C42.8551922,9.99191123 40.7161793,8.13723079 38.1928216,8.13140351 C38.0431826,8.13307333 37.9012969,8.19833077 37.8025171,8.3109162 C37.7037373,8.42350163 37.6573644,8.57281391 37.6749529,8.72165018 L37.7075182,9.01438707 C37.7396454,9.28315113 37.9670278,9.48561305 38.2373011,9.48610711 C39.0670286,9.49754811 39.8692326,9.78588337 40.5168765,10.3054522 Z" id="Path" fill="#FF8843" fill-rule="nonzero"></path>
                        <path d="M4.37806007,6.31532112 C2.95635873,7.44887019 2.0521155,9.10949606 1.87052708,10.9203588 C1.84311266,11.1972295 1.60652173,11.4056894 1.32883006,11.3976472 L0.515490246,11.3737828 C0.368716101,11.3696007 0.230235011,11.3046893 0.133002169,11.194496 C0.0357693277,11.0843026 -0.0115202592,10.9386813 0.00238720111,10.7922864 C0.436133838,6.20062352 4.39336029,2.75906185 8.99360464,2.9727113 C9.14029329,2.97950993 9.27763307,3.04680087 9.37302536,3.15861211 C9.46841764,3.27042335 9.51335686,3.41678534 9.49717636,3.56295797 L9.40662876,4.37116634 C9.37643306,4.64663931 9.13907775,4.85208056 8.86254891,4.8420909 C7.23922024,4.77534517 5.64651939,5.29857426 4.37806007,6.31532112 L4.37806007,6.31532112 Z" id="Path" fill="#FF8843" fill-rule="nonzero"></path>
                        <path d="M5.02698451,7.12989334 C6.2727467,6.13113453 7.83217632,5.60790584 9.42727997,5.6534812 C9.57526533,5.65809045 9.71457291,5.72450894 9.81144795,5.8366432 C9.90832299,5.94877746 9.95392553,6.09639513 9.93720591,6.24372786 L9.86969235,6.8474977 C9.83939058,7.11934526 9.60742678,7.32339667 9.33434954,7.31842226 C6.72967504,7.2724324 4.50985392,9.20154867 4.18822783,11.7906146 C4.15589645,12.0633091 3.92142395,12.2664127 3.64732508,12.2591528 L3.04129161,12.2416522 C2.89357346,12.2378344 2.75418309,12.1723113 2.65686695,12.0609459 C2.5595508,11.9495805 2.51318069,11.8025255 2.52898284,11.6553829 C2.72854143,9.87450974 3.62728862,8.24629983 5.02698451,7.12989334 L5.02698451,7.12989334 Z" id="Path" fill="#FF8843" fill-rule="nonzero"></path>
                        <path d="M7.55755154,10.3054522 C6.82564566,10.8895341 6.33948162,11.7276279 6.19536621,12.6537112 C6.15687403,12.92167 5.92470572,13.1186805 5.65446346,13.1127035 L5.36137519,13.1039532 C5.20943972,13.0993027 5.06676731,13.0297075 4.96944024,12.9127685 C4.87211318,12.7958294 4.82945116,12.6427442 4.85224353,12.4922286 C5.21923589,9.99191123 7.35824879,8.13723079 9.88160651,8.13140351 C10.0312455,8.13307333 10.1731311,8.19833077 10.271911,8.3109162 C10.3706908,8.42350163 10.4170637,8.57281391 10.3994752,8.72165018 L10.3669098,9.01438707 C10.3347827,9.28315113 10.1074002,9.48561305 9.83712698,9.48610711 C9.00739951,9.49754811 8.20519544,9.78588337 7.55755154,10.3054522 Z" id="Path" fill="#FF8843" fill-rule="nonzero"></path>
                        <path d="M22.2842443,59.952197 L22.2842443,1.51141329 C22.2842443,0.67668278 22.9599033,0 23.7933709,0 L24.687727,0 C25.5211946,0 26.1968536,0.67668278 26.1968536,1.51141329 L26.1968536,59.952197 C26.1952651,60.7826788 22.2842443,60.7826788 22.2842443,59.952197 Z" id="Path" fill="#535461" fill-rule="nonzero"></path>
                        <rect id="Rectangle" fill="url(#linearGradient-1)" fill-rule="nonzero" x="9.60758089" y="11.7922056" width="29.1285263" height="24.2271596" rx="3.53596039"></rect>
                        <rect id="Rectangle" fill="#FFFFFF" fill-rule="nonzero" x="9.96341705" y="12.148581" width="28.4597449" height="23.5152044" rx="3.53596039"></rect>
                        <path d="M25.5042439,21.904356 C25.7124296,21.9047936 25.8810887,22.0737082 25.8815256,22.2822093 L25.8815256,25.530157 C25.8810887,25.7386581 25.7124296,25.9075727 25.5042439,25.9080103 L22.5701841,25.9080103 C22.3619985,25.9075727 22.1933394,25.7386581 22.1929025,25.530157 L22.1929025,22.2822093 C22.1933394,22.0737082 22.3619985,21.9047936 22.5701841,21.904356 L25.5050382,21.904356 M25.5050382,21.7452599 L22.5701841,21.7452599 C22.2740838,21.7452599 22.034047,21.9856603 22.034047,22.2822093 L22.034047,25.530157 C22.034047,25.826706 22.2740838,26.0671064 22.5701841,26.0671064 L25.5050382,26.0671064 C25.8011386,26.0671064 26.0411753,25.826706 26.0411753,25.530157 L26.0411753,22.2822093 C26.0411753,21.9856603 25.8011386,21.7452599 25.5050382,21.7452599 Z" id="Shape" fill="#E0E0E0" fill-rule="nonzero"></path>
                        <line x1="24.0475002" y1="22.9440493" x2="24.0475002" y2="23.8556701" id="Path" stroke="#6C63FF" stroke-width="0.5" stroke-linecap="round"></line>
                        <path d="M24.4184671,23.3433806 C24.7474036,23.5191279 24.9139193,23.8971727 24.8217503,24.258965 C24.7295812,24.6207572 24.4025739,24.8726924 24.0297733,24.8691252 C23.6569726,24.8655581 23.3348313,24.6074114 23.2495812,24.2439215 C23.1643312,23.8804316 23.3380286,23.5056421 23.670258,23.3362212" id="Path" stroke="#6C63FF" stroke-width="0.5" stroke-linecap="round"></path>
                    </g>
                </g>
            </g>
        </g>
    </g>
</svg>