<?xml version="1.0" encoding="UTF-8"?>
<svg width="183px" height="160px" viewBox="0 0 183 160" version="1.1" xmlns="http://www.w3.org/2000/svg" xmlns:xlink="http://www.w3.org/1999/xlink">
    <title>NoDeviceConnected-Illustration</title>
    <g id="Android-App---AV-Revisions" stroke="none" stroke-width="1" fill="none" fill-rule="evenodd">
        <g id="6-NoDeviceSession-Device_Empty" transform="translate(-89.000000, -195.000000)">
            <g id="Group-8" transform="translate(20.000000, 104.000000)">
                <g id="NoDeviceConnected-Illustration" transform="translate(69.000000, 91.000000)">
                    <path d="M170.537593,159.818108 L170.537593,142.484519 C170.537593,142.484519 177.276198,154.773293 170.537593,159.818108 Z" id="Path" fill="#F1F1F1" fill-rule="nonzero"></path>
                    <path d="M170.953852,159.815057 L158.216125,148.092903 C158.216125,148.092903 171.803736,151.427242 170.953852,159.815057 Z" id="Path" fill="#F1F1F1" fill-rule="nonzero"></path>
                    <path d="M64.5895045,30.8575933 L63.8777739,30.8575933 L63.8777739,11.3122897 C63.8777765,5.06468821 58.8254522,0 52.5930907,0 L11.2847143,0 C8.29182773,0 5.42151931,1.19181364 3.30522465,3.31327475 C1.18892999,5.43473587 0,8.31205827 0,11.3122634 L0,118.539335 C0,124.786939 5.05231911,129.851634 11.2846832,129.851634 L52.5930357,129.851634 C58.8253998,129.851634 63.8777435,124.786982 63.877762,118.539378 L63.877762,44.7702688 L64.5895045,44.7702688 L64.5895045,30.8575933 Z" id="Path" fill="#3F3D56" fill-rule="nonzero"></path>
                    <path d="M53.0483894,2.94305363 L47.6562817,2.94305363 C48.1598322,4.18063375 48.0157923,5.58828467 47.2720924,6.69760595 C46.5283924,7.80692723 45.2826227,8.47235091 43.9493234,8.47245172 L20.2842919,8.47245172 C18.9509907,8.47235189 17.705219,7.80692724 16.9615187,6.69760394 C16.2178184,5.58828064 16.07378,4.18062734 16.5773336,2.94305363 L11.5410937,2.94305363 C9.30603793,2.94305363 7.16252239,3.83308788 5.58209663,5.41737286 C4.00167088,7.00165785 3.11379283,9.15041192 3.11379283,11.3909331 L3.11379283,118.460675 C3.11379283,120.701195 4.00166145,122.849951 5.58208297,124.434239 C7.16250448,126.018527 9.30601703,126.908573 11.5410722,126.908573 L53.0483894,126.908573 C57.7026502,126.908573 61.4756806,123.126329 61.4756806,118.460687 L61.4756806,118.460687 L61.4756806,11.3909522 C61.4756806,9.15043029 60.5878101,7.00167385 59.0073858,5.41738627 C57.4269615,3.83309869 55.2834459,2.94305363 53.0483894,2.94305363 Z" id="Path" fill="#FFFFFF" fill-rule="nonzero"></path>
                    <ellipse id="b5dcbba4-f290-467d-a612-e64d8f6895fb" fill="#FF8843" fill-rule="nonzero" cx="32.3754733" cy="62.6458523" rx="20.1850306" ry="20.2343892"></ellipse>
                    <path d="M32.388333,69.7273206 C33.2464089,69.7273206 33.9420169,69.012132 33.9420169,68.1299021 C33.9420169,67.2476722 33.2464089,66.5324835 32.388333,66.5324835 C31.5302571,66.5324835 30.8346492,67.2476722 30.8346492,68.1299021 C30.8346492,69.012132 31.5302571,69.7273206 32.388333,69.7273206 Z M32.388333,55.3505535 C31.5338069,55.3505535 30.8346492,56.0693919 30.8346492,56.9479721 L30.8346492,63.3376464 C30.8346492,64.2162266 31.5338069,64.9350649 32.388333,64.9350649 C33.2428592,64.9350649 33.9420169,64.2162266 33.9420169,63.3376464 L33.9420169,56.9479721 C33.9420169,56.0693919 33.2428592,55.3505535 32.388333,55.3505535 Z" id="Combined-Shape" fill="#FFFFFF"></path>
                    <polygon id="Path" fill="#9F616A" fill-rule="nonzero" points="141.088359 156.534473 138.157872 156.534233 136.763859 145.203424 141.088837 145.203664"></polygon>
                    <path d="M141.835672,159.382024 L132.386702,159.381672 L132.386702,159.261866 C132.386843,157.225773 134.033377,155.575238 136.064503,155.575128 L136.064742,155.575128 L141.835841,155.575368 L141.835672,159.382024 Z" id="Path" fill="#2F2E41" fill-rule="nonzero"></path>
                    <polygon id="Path" fill="#9F616A" fill-rule="nonzero" points="118.825982 156.43767 115.994931 155.678816 117.567737 144.371488 121.745951 145.491439"></polygon>
                    <path d="M118.814224,159.382024 L109.685973,156.935098 L109.716841,156.819366 C110.2416,154.852391 112.257554,153.684187 114.219792,154.209997 L114.220016,154.210059 L119.795232,155.704572 L118.814224,159.382024 Z" id="Path" fill="#2F2E41" fill-rule="nonzero"></path>
                    <polygon id="Path" fill="#2F2E41" fill-rule="nonzero" points="142.774226 93.0342095 145.228807 95.8927901 142.054273 153.985233 135.273518 153.985233 131.854697 109.285228 121.254748 155.184015 114.205326 153.450896 120.615108 95.153345"></polygon>
                    <path d="M122.253879,55.5288254 L129.00542,52.1341496 L139.388091,52.3171012 L148.322887,56.9002588 L143.239432,82.3503618 L145.435349,95.6200508 L145.435335,95.6200508 C136.947907,97.7897789 128.062088,97.8630964 119.540181,95.8337135 L119.472199,95.8175253 C119.472199,95.8175253 124.519,77.8665812 122.37057,72.3885058 L122.253879,55.5288254 Z" id="Path" fill="#CBCBCB" fill-rule="nonzero"></path>
                    <path d="M141.786243,41.9648248 C141.77058,37.7353734 138.341772,34.3172058 134.122616,34.3250177 C129.90346,34.3328564 126.487292,37.7637194 126.487292,41.9931998 C126.487292,46.2226802 129.90346,49.6535432 134.122616,49.6613819 C138.341772,49.6691938 141.77058,46.2510262 141.786243,42.0215747 C141.786243,42.0026613 141.786243,41.9837447 141.786243,41.9648248 Z" id="Path" fill="#9F616A" fill-rule="nonzero"></path>
                    <path d="M130.711355,37.5832247 C131.10755,37.2093694 131.629383,36.9983455 132.173457,36.9919658 C132.99071,36.9653496 134.215249,37.2562803 134.736381,37.9222864 C135.155223,38.4575622 135.175258,39.1940073 135.176857,39.8743111 L135.181279,41.7518642 C135.182589,42.3073369 135.189328,42.8865146 135.441079,43.3813605 C135.692831,43.8762065 136.270725,44.2520631 136.798676,44.0833733 C137.424964,43.8832607 137.700358,43.0488355 138.340409,42.8987924 C138.821095,42.7861096 139.314858,43.1382302 139.524978,43.5860282 C139.702427,44.0502147 139.761241,44.5515207 139.696067,45.0443116 C139.635478,46.0274429 138.22889,46.4174438 138.029746,47.3820003 C137.914534,47.9399387 137.511189,49.0529353 138.029746,48.819677 C140.420029,48.5800642 141.469193,47.1805075 142.563188,45.8630301 L145.030572,42.8916207 C145.312357,42.5965964 145.528899,42.2453101 145.666059,41.8606987 C145.727248,41.5912748 145.749214,41.3143913 145.731273,41.0386591 C145.717819,40.3001086 145.697821,39.5617586 145.671277,38.823609 C145.648092,38.1786553 145.486155,37.3649375 144.856076,37.2323933 C144.528368,37.1634591 144.094666,37.2836704 143.921447,36.9964154 C143.856536,36.8524266 143.846004,36.6897057 143.891807,36.5385154 C144.030862,35.8013874 144.265621,35.0303925 144.02361,34.3205156 C143.658614,33.2499018 142.401803,32.8105861 141.291278,32.6085949 C140.180752,32.4066037 138.934086,32.232827 138.237036,31.3429793 C138.050459,31.0474979 137.848085,30.7623421 137.630801,30.4887598 C137.311047,30.1973317 136.918165,29.9986895 136.494317,29.9141515 C135.115702,29.5644119 133.659499,29.6939675 132.363877,30.2816289 C131.826682,30.5273614 131.287095,30.8582762 130.697797,30.8208367 C130.085682,30.7819428 129.562829,30.350103 128.95851,30.2450472 C127.982388,30.0753486 127.04921,30.8084392 126.568177,31.6766258 C125.972131,32.7523889 125.91743,34.2255906 126.759462,35.1210212 C127.179542,35.5677505 127.806291,35.8746034 127.980748,36.4630924 C128.051759,36.7026309 128.035275,36.9606268 128.09808,37.2024488 C128.247336,37.6937326 128.664548,38.0555904 129.171002,38.1330186 C129.76787,38.2304907 130.272872,37.9563689 130.711355,37.5832247 Z" id="Path" fill="#2F2E41" fill-rule="nonzero"></path>
                    <path d="M121.322027,74.0845953 C121.616152,74.8420249 122.229849,75.4299527 122.997981,75.6901771 C123.766113,75.9504015 124.609775,75.8561911 125.301951,75.4328964 L139.010986,82.6975008 L139.454916,79.3497676 L126.13398,71.4754565 C125.329889,70.3318169 123.799586,69.9718088 122.571925,70.6374728 C121.344264,71.3031369 120.807293,72.7840653 121.322027,74.0846001 L121.322027,74.0845953 Z" id="Path" fill="#9F616A" fill-rule="nonzero"></path>
                    <path d="M139.590696,74.6634279 C139.138372,75.3379869 138.411222,75.777059 137.604905,75.8624995 C136.798589,75.9479399 135.995934,75.6709721 135.412917,75.1061221 L120.450437,79.1878253 L120.580681,74.9374683 L135.464827,71.0620789 C136.499053,70.122527 138.070844,70.106896 139.123462,71.0256949 C140.176079,71.9444937 140.376807,73.5073051 139.590694,74.6634279 L139.590696,74.6634279 Z" id="Path" fill="#9F616A" fill-rule="nonzero"></path>
                    <path d="M145.405519,57.0834859 L148.322892,56.900266 C148.322892,56.900266 151.738532,61.418213 149.843975,66.3208415 C149.843975,66.3208415 150.172194,83.932053 142.607042,83.208662 C135.04189,82.485271 132.65161,82.485271 132.65161,82.485271 L134.922378,76.1355322 L140.002389,74.5632458 C140.002389,74.5632458 138.436725,67.6398141 141.400361,64.7591939 L145.405519,57.0834859 Z" id="Path" fill="#CBCBCB" fill-rule="nonzero"></path>
                    <path d="M124.339422,56.9287751 L123.927077,54.8098647 C123.927077,54.8098647 117.846279,54.6667945 116.643926,63.9035846 C116.643926,63.9035846 111.175695,77.7274021 116.535515,79.5073058 C121.895334,81.2872095 127.791053,79.5073058 127.791053,79.5073058 L127.346962,73.411118 L121.449475,72.2045862 C121.449475,72.2045862 124.49601,68.2535439 122.83713,64.8264461 L124.339422,56.9287751 Z" id="Path" fill="#CBCBCB" fill-rule="nonzero"></path>
                    <path d="M182.760972,160 L91.6911939,160 C91.5591823,160 91.4521657,159.892722 91.4521657,159.760387 C91.4521657,159.628053 91.5591823,159.520774 91.6911939,159.520774 L182.760972,159.520774 C182.892983,159.520774 183,159.628053 183,159.760387 C183,159.892722 182.892983,160 182.760972,160 Z" id="Path" fill="#CBCBCB" fill-rule="nonzero"></path>
                </g>
            </g>
        </g>
    </g>
</svg>