<?xml version="1.0" encoding="UTF-8"?>
<svg width="14px" height="22px" viewBox="0 0 14 22" version="1.1" xmlns="http://www.w3.org/2000/svg" xmlns:xlink="http://www.w3.org/1999/xlink">
    <title>Components/Icon/Disabled/Update Copy</title>
    <defs>
        <path d="M17,1.01 L7,1 C5.9,1 5,1.9 5,3 L5,21 C5,22.1 5.9,23 7,23 L17,23 C18.1,23 19,22.1 19,21 L19,3 C19,1.9 18.1,1.01 17,1.01 Z M17,19 L7,19 L7,5 L17,5 L17,19 Z M16,13 L13,13 L13,8 L11,8 L11,13 L8,13 L12,17 L16,13 Z" id="path-1"></path>
    </defs>
    <g id="Symbols" stroke="none" stroke-width="1" fill="none" fill-rule="evenodd">
        <g id="Artboard" transform="translate(-233.000000, -1043.000000)">
            <g id="Shape" transform="translate(228.000000, 1042.000000)">
                <use fill="#2A3347" xlink:href="#path-1"></use>
                <use fill-opacity="0.4" fill="#FFFFFF" xlink:href="#path-1"></use>
            </g>
        </g>
    </g>
</svg>