<?xml version="1.0" encoding="UTF-8"?>
<svg width="152px" height="160px" viewBox="0 0 152 160" version="1.1" xmlns="http://www.w3.org/2000/svg" xmlns:xlink="http://www.w3.org/1999/xlink">
    <title>ScreenShare-Illustration</title>
    <g id="Android-App---AV-Revisions" stroke="none" stroke-width="1" fill="none" fill-rule="evenodd">
        <g id="6-Session-ScreenShare_NotStarted" transform="translate(-105.000000, -195.000000)" fill-rule="nonzero">
            <g id="Group-8" transform="translate(20.000000, 104.000000)">
                <g id="Group" transform="translate(10.000000, 91.000000)">
                    <g id="ScreenShare-Illustration" transform="translate(75.000000, 0.000000)">
                        <ellipse id="Oval" fill="#E6E6E6" cx="76" cy="156.116594" rx="76" ry="3.88340607"></ellipse>
                        <path d="M140.257136,99.3726096 L140.257136,100.312536 C140.257136,100.312536 141.950295,106.328066 139.88088,106.328066 C137.811465,106.328066 137.058948,100.500523 137.058948,100.500523 L137.058948,99.3726096 L140.257136,99.3726096 Z" id="Path" fill="#FFB8B8"></path>
                        <path d="M102.631441,77.9422878 L103.007699,76.4384042 C103.007699,76.4384042 105.077112,71.7387731 106.770267,72.6786998 C108.463422,73.6186264 106.017755,77.1903546 106.017755,77.1903546 L105.641496,78.1302813 L102.631441,77.9422878 Z" id="Path" fill="#FFB8B8"></path>
                        <polygon id="Path" fill="#FFB8B8" points="114.671693 145.241113 115.048023 148.436725 118.622398 149.000682 118.622398 144.86507"></polygon>
                        <polygon id="Path" fill="#FFB8B8" points="134.425216 144.301113 134.80133 149.000682 138.940307 148.436725 138.187648 143.92507"></polygon>
                        <polygon id="Path" fill="#2F2E41" points="112.978534 108.583917 112.226091 108.771831 114.295364 128.698235 114.295364 146.55694 119.562898 145.61694 122.196773 114.223486 130.286239 129.638235 134.236943 145.241113 140.445193 144.113199 135.365716 124.562623 131.979398 105.952047"></polygon>
                        <path d="M116.741076,147.308861 C116.741076,147.308861 115.047917,146.180947 114.483531,146.932891 C113.919144,147.684835 111.473475,151.444546 111.473475,151.444546 C111.473475,151.444546 105.453364,157.648071 111.473475,157.460076 C111.473475,157.460076 115.42418,157.460076 116.176685,155.204248 C116.176685,155.204248 116.364816,154.076334 117.681714,154.076334 C118.998613,154.076334 120.503646,152.760436 120.503646,152.008496 C120.503646,151.256557 119.186745,147.459843 118.622361,148.042302 C118.057977,148.624761 116.741076,147.308861 116.741076,147.308861 Z" id="Path" fill="#2F2E41"></path>
                        <path d="M136.938568,147.308861 C136.938568,147.308861 138.631727,146.180947 139.196114,146.932891 C139.7605,147.684835 142.206169,151.444546 142.206169,151.444546 C142.206169,151.444546 148.22628,157.648071 142.206169,157.460076 C142.206169,157.460076 138.255465,157.460076 137.502957,155.204248 C137.502957,155.204248 137.314829,154.076334 135.99793,154.076334 C134.681031,154.076334 133.175998,152.760436 133.175998,152.008496 C133.175998,151.256557 134.492897,147.459843 135.057283,148.042302 C135.62167,148.624761 136.938568,147.308861 136.938568,147.308861 Z" id="Path" fill="#2F2E41"></path>
                        <ellipse id="Oval" fill="#FFB8B8" cx="113.448827" cy="72.0207515" rx="4.96590909" ry="4.96212998"></ellipse>
                        <polygon id="Path" fill="#FFB8B8" points="113.07267 75.9684841 115.70633 79.1640958 120.409477 75.2163977 117.023375 72.5847429"></polygon>
                        <path d="M114.483535,79.2581842 L114.637329,77.8670619 L119.918556,74.8348876 L127.093103,74.1546594 C127.540757,74.1122171 127.986941,74.249271 128.333437,74.535651 C128.679933,74.8220311 128.898337,75.2342616 128.94057,75.6815974 L131.603224,103.884262 L132.543866,106.32807 C132.543866,106.32807 115.988562,115.727335 112.225994,108.771876 L115.047926,94.1090216 L109.215945,83.0178909 L114.483535,79.2581842 Z" id="Path" fill="#D0CDE1"></path>
                        <path d="M127.276269,74.5585509 C127.39123,74.539471 127.503662,74.5074581 127.611421,74.4631227 C128.319784,74.2081954 129.111583,74.4490952 129.557576,75.0552278 L137.999591,86.5896105 L141.197775,99.9365664 L136.682684,99.9365664 L133.672628,90.9132718 L128.781298,84.5217722 L127.276269,74.5585509 Z" id="Path" fill="#D0CDE1"></path>
                        <polygon id="Path" fill="#D0CDE1" points="110.720989 82.6419016 109.215886 83.0179448 104.700795 86.9656428 106.205898 77.9423331 102.44325 77.1902468 99.5273977 92.323233 101.59667 94.390931 113.354864 89.5972977"></polygon>
                        <path d="M115.426373,72.0044973 C115.426373,72.0044973 113.386544,69.0113125 112.219044,69.9968691 C111.051543,70.9824258 107.778441,72.9155746 107.088767,71.3854026 C106.399093,69.8552305 109.049708,67.0518666 111.050092,66.3816899 C113.050477,65.7115133 116.563204,64.8208692 117.66494,67.7760894 C118.32815,69.6510529 118.549382,71.653662 118.311413,73.6280286 L115.426373,72.0044973 Z" id="Path" fill="#2F2E41"></path>
                        <ellipse id="Oval" fill="#FFB8B8" transform="translate(115.300586, 71.667641) rotate(-19.977430) translate(-115.300586, -71.667641) " cx="115.300586" cy="71.6676412" rx="1" ry="1"></ellipse>
                        <path d="M92.4090909,37.3124667 L91.545718,37.3124667 L91.545718,13.6786334 C91.545722,10.0508282 90.1034842,6.57160767 87.5362823,4.00636462 C84.9690803,1.44112158 81.4872071,0 77.856639,0 L27.7470667,0 C24.1165005,0 20.63463,1.44112571 18.0674304,4.00636844 C15.5002307,6.57161117 14.0579985,10.05083 14.0579985,13.6786334 L14.0579985,143.335677 C14.0579985,146.96348 15.5002299,150.4427 18.0674296,153.007943 C20.6346293,155.573186 24.1165001,157.014312 27.7470667,157.014312 L77.856639,157.014312 C81.4872075,157.014312 84.969081,155.57319 87.536283,153.007947 C90.1034851,150.442703 91.5457225,146.963482 91.545718,143.335677 L91.545718,54.1354358 L92.4090909,54.1354358 L92.4090909,37.3124667 Z" id="Path" fill="#3F3D56"></path>
                        <path d="M78.4090035,3.55869723 L71.8680376,3.55869723 C72.4788752,5.05515658 72.3041462,6.75726224 71.4019931,8.09863377 C70.4998399,9.44000531 68.9886452,10.2446248 67.3712709,10.2447488 L38.6641148,10.2447488 C37.0467378,10.2446267 35.5355401,9.44000634 34.6333859,8.09863226 C33.7312318,6.75725819 33.5565044,5.05514923 34.1673459,3.55869723 L28.0580751,3.55869723 C25.3468142,3.55869723 22.7465979,4.6349141 20.8294443,6.55060349 C18.9122906,8.46629288 17.8352395,11.0645274 17.8352395,13.7737251 L17.8352395,143.240563 C17.8352395,145.949764 18.9122856,148.548002 20.8294395,150.463694 C22.7465935,152.379387 25.3468117,153.455606 28.0580751,153.455606 L78.4090035,153.455606 C81.1202665,153.455606 83.7204842,152.379386 85.6376377,150.463693 C87.5547912,148.548001 88.6318369,145.949763 88.6318369,143.240563 L88.6318369,13.7737337 C88.6318369,11.0645364 87.5547861,8.46630221 85.637633,6.55061288 C83.7204798,4.63492356 81.1202641,3.55869723 78.4090035,3.55869723 L78.4090035,3.55869723 Z" id="Path" fill="#FFFFFF"></path>
                        <rect id="Rectangle" fill="#FF8843" x="42.3867805" y="38.3387776" width="17.8470088" height="1.65609146"></rect>
                        <rect id="Rectangle" fill="#E6E6E6" x="42.3867805" y="44.0677249" width="31.105837" height="1.65609146"></rect>
                        <rect id="Rectangle" fill="#E6E6E6" x="42.3867805" y="49.7966701" width="31.0753787" height="1.65609146"></rect>
                        <rect id="Rectangle" fill="#FF8843" x="25.4293647" y="38.3633682" width="13.2588283" height="13.2487382"></rect>
                        <rect id="Rectangle" fill="#FF8843" x="42.3867805" y="73.1167156" width="17.8470088" height="1.65609146"></rect>
                        <rect id="Rectangle" fill="#E6E6E6" x="42.3867805" y="78.8456629" width="31.105837" height="1.65609146"></rect>
                        <rect id="Rectangle" fill="#E6E6E6" x="42.3867805" y="84.5746081" width="31.0753787" height="1.65609146"></rect>
                        <rect id="Rectangle" fill="#FF8843" x="25.4293647" y="73.1413062" width="13.2588283" height="13.2487382"></rect>
                        <rect id="Rectangle" fill="#FF8843" x="42.3867805" y="107.894654" width="17.8470088" height="1.65609146"></rect>
                        <rect id="Rectangle" fill="#E6E6E6" x="42.3867805" y="113.623601" width="31.105837" height="1.65609146"></rect>
                        <rect id="Rectangle" fill="#E6E6E6" x="42.3867805" y="119.352546" width="31.0753787" height="1.65609146"></rect>
                        <rect id="Rectangle" fill="#FF8843" x="25.4293647" y="107.919244" width="13.2588283" height="13.2487382"></rect>
                    </g>
                </g>
            </g>
        </g>
    </g>
</svg>